<?xml version="1.0" standalone="no"?>
<!DOCTYPE svg PUBLIC "-//W3C//DTD SVG 1.1//EN" "http://www.w3.org/Graphics/SVG/1.1/DTD/svg11.dtd" >
<svg xmlns="http://www.w3.org/2000/svg">
<metadata></metadata>
<defs>
<font id="twc_roundlight" horiz-adv-x="1124" >
<font-face units-per-em="2048" ascent="1716" descent="-332" />
<missing-glyph horiz-adv-x="401" />
<glyph horiz-adv-x="2048" />
<glyph horiz-adv-x="2048" />
<glyph unicode="&#xd;" horiz-adv-x="2048" />
<glyph unicode=" "  horiz-adv-x="401" />
<glyph unicode="&#x09;" horiz-adv-x="401" />
<glyph unicode="&#xa0;" horiz-adv-x="401" />
<glyph unicode="!" horiz-adv-x="460" d="M152 70q0 33 22 56.5t55 23.5t56.5 -23.5t23.5 -56.5q0 -34 -23 -56t-57 -22t-55.5 22t-21.5 56zM176 1384q0 26 14.5 41t38.5 15h4q24 0 39 -15t15 -41q0 -151 -3.5 -414t-6.5 -450l-3 -188q-3 -43 -41 -43h-4q-38 0 -41 43q-12 713 -12 1052z" />
<glyph unicode="&#x22;" horiz-adv-x="432" d="M55 1384q0 26 14 41t37 15h5q23 0 37 -15t14 -41q0 -29 -4 -98.5t-8 -124.5l-5 -55q-3 -37 -34 -37h-5q-31 0 -34 37q-17 212 -17 278zM270 1384q0 26 14 41t38 15h4q23 0 37 -15t14 -41q0 -29 -4.5 -98.5t-8.5 -124.5l-4 -55q-3 -37 -34 -37h-4q-32 0 -35 37 q-17 212 -17 278z" />
<glyph unicode="#" horiz-adv-x="931" d="M39 565v4q0 45 45 45h143l39 263h-129q-45 0 -45 43v4q0 41 45 41h142l61 430q3 23 14.5 34t26.5 11h6q17 0 29 -14t8 -44l-62 -417h269l63 430q3 23 14.5 34t26.5 11h6q17 0 29 -14t8 -44l-61 -417h131q43 0 43 -41v-4q0 -43 -43 -43h-143l-39 -263h131q45 0 45 -45v-4 q0 -45 -45 -45h-144l-69 -481q-3 -23 -14.5 -34t-26.5 -11h-6q-17 0 -29 13.5t-8 43.5l67 469h-268l-70 -481q-3 -23 -14.5 -34t-26.5 -11h-6q-17 0 -29 13.5t-8 43.5l70 469h-131q-45 0 -45 45zM313 614h269l39 263h-271z" />
<glyph unicode="$" horiz-adv-x="1015" d="M45 170v2q0 20 12.5 33.5t32.5 13.5q15 0 33 -13.5t42.5 -33.5t58.5 -40.5t95 -36t138 -17.5v624q-99 28 -164.5 57t-118 72.5t-76.5 103.5t-24 142q0 152 99.5 251t285.5 112v92q0 41 41 41h4q41 0 41 -41v-90q187 -8 307 -86q45 -29 45 -70v-2q0 -21 -13 -33t-32 -12 q-17 0 -41 17t-49.5 37.5t-83 39t-133.5 21.5v-570q88 -24 147.5 -46t113.5 -53.5t85 -70.5t49 -93.5t18 -125.5q0 -189 -111 -289.5t-304 -111.5v-166q0 -41 -41 -41h-4q-41 0 -41 41v164q-245 9 -369 108q-43 34 -43 70zM176 1085q0 -64 18.5 -110.5t59 -77.5t87 -51 t118.5 -39v547q-142 -13 -212.5 -86t-70.5 -183zM543 80q146 13 228.5 88t82.5 219q0 57 -14.5 100t-37.5 71t-65.5 51.5t-84.5 38t-109 32.5v-600z" />
<glyph unicode="%" horiz-adv-x="1468" d="M66 1087q0 169 89 262t222 93q132 0 220.5 -93t88.5 -262q0 -171 -88.5 -263.5t-220.5 -92.5q-133 0 -222 92.5t-89 263.5zM164 1083q0 -132 57.5 -205t155.5 -73q97 0 155 73.5t58 204.5q0 134 -58 209.5t-155 75.5q-98 0 -155.5 -75t-57.5 -210zM214.5 -55 q-10.5 21 6.5 49l955 1476q19 29 41 29h2q25 0 35 -20.5t-7 -48.5l-954 -1477q-19 -29 -41 -29h-2q-25 0 -35.5 21zM780 348q0 171 89 264t223 93q132 0 220.5 -93t88.5 -264t-88.5 -263.5t-220.5 -92.5q-134 0 -223 92.5t-89 263.5zM879 346q0 -132 57.5 -206t155.5 -74 q97 0 155 74t58 206q0 133 -58 208t-155 75q-98 0 -155.5 -75t-57.5 -208z" />
<glyph unicode="&#x26;" horiz-adv-x="1310" d="M72 408q0 83 26.5 153t74.5 121t105 88t128 64q-52 64 -81.5 128.5t-29.5 151.5q0 146 101.5 237t265.5 91q150 0 256 -62q47 -27 47 -61v-2q0 -20 -13 -32.5t-32 -12.5q-20 0 -43.5 13t-45.5 29t-66.5 29t-100.5 13q-119 0 -191 -67.5t-72 -176.5q0 -73 39.5 -144 t126.5 -169l408 -457q105 201 137 410q8 51 49 51h4q24 0 35 -16.5t8 -43.5q-47 -268 -172 -473l174 -194q24 -28 13 -56t-43 -28h-2q-24 0 -56 35l-141 157q-74 -89 -184 -140.5t-246 -51.5q-228 0 -353.5 117t-125.5 299zM184 410q0 -64 22 -121.5t66 -105t119 -75.5 t172 -28q222 0 359 170l-461 520q-65 -27 -111 -56t-86 -71t-60 -100.5t-20 -132.5z" />
<glyph unicode="'" horiz-adv-x="217" d="M55 1384q0 26 14 41t37 15h5q23 0 37 -15t14 -41q0 -29 -4 -98.5t-8 -124.5l-5 -55q-3 -37 -34 -37h-5q-31 0 -34 37q-17 212 -17 278z" />
<glyph unicode="(" horiz-adv-x="557" d="M55 709q0 136 24.5 254.5t62.5 201.5t91 152.5t102 111t103 74.5q28 17 49 17q20 0 31.5 -12t11.5 -31t-12.5 -33.5t-47.5 -39.5t-52 -40q-38 -33 -68.5 -66.5t-67 -91.5t-61 -124t-41 -163t-16.5 -210t16.5 -210t41 -163.5t60.5 -124.5t67 -91.5t69 -66.5q18 -16 52 -40 t47 -38.5t13 -33.5t-11.5 -31t-31.5 -12q-22 0 -49 16q-54 33 -103 75t-102 111.5t-91 152.5t-62.5 201.5t-24.5 254.5z" />
<glyph unicode=")" horiz-adv-x="557" d="M27 -59q0 19 13 33.5t47 38.5t52 40q38 33 69 66.5t67 91.5t60.5 124.5t41 163.5t16.5 210t-16.5 210t-41 163t-61 124t-67 91.5t-68.5 66.5q-17 15 -52 40t-47.5 39.5t-12.5 33.5t11.5 31t31.5 12q21 0 49 -17q54 -33 103 -74.5t102 -111t91 -152.5t62.5 -201.5 t24.5 -254.5t-24.5 -254.5t-62.5 -201.5t-91 -152.5t-102 -111.5t-103 -75q-27 -16 -49 -16q-20 0 -31.5 12t-11.5 31z" />
<glyph unicode="*" horiz-adv-x="729" d="M59 1210l2 7q15 38 70 20q63 -21 203 -90q-19 187 -19 233q0 60 47 60h5q47 0 47 -60q0 -46 -19 -233q159 75 203 90q55 18 70 -23l2 -6q15 -45 -41 -63q-44 -13 -217 -51q10 -12 46 -49.5t63.5 -68.5t43.5 -52q33 -44 0 -74l-6 -4q-37 -29 -74 20q-12 16 -29 42.5 t-29.5 48.5t-32.5 56.5t-29 49.5q-94 -161 -121 -197q-37 -49 -74 -20l-6 4q-33 30 0 74q32 44 153 170q-165 35 -217 51q-57 18 -41 65z" />
<glyph unicode="+" horiz-adv-x="964" d="M70 707v4q0 43 45 43h321v344q0 47 49 47h4q20 0 34 -12t14 -35v-344h315q43 0 43 -43v-4q0 -45 -43 -45h-315v-343q0 -25 -13.5 -37t-34.5 -12h-4q-49 0 -49 49v343h-321q-45 0 -45 45z" />
<glyph unicode="," horiz-adv-x="290" d="M39 -131q0 22 37 37q55 22 55 67q0 7 -1.5 13t-6 10.5t-7.5 7t-9.5 7t-8.5 5.5q-32 22 -32 62q0 31 21.5 51.5t55.5 20.5t58 -27t24 -82q0 -170 -139 -199q-47 -10 -47 25v2z" />
<glyph unicode="-" horiz-adv-x="462" d="M43 608v4q0 18 11 30.5t32 12.5h291q21 0 32 -12.5t11 -30.5v-4q0 -18 -11 -30.5t-32 -12.5h-291q-21 0 -32 12.5t-11 30.5z" />
<glyph unicode="." horiz-adv-x="290" d="M68 70q0 33 22 56.5t55 23.5q32 0 56 -24t24 -56q0 -33 -23.5 -55.5t-56.5 -22.5q-34 0 -55.5 22t-21.5 56z" />
<glyph unicode="/" horiz-adv-x="622" d="M29 -33l465 1510q14 47 49 47h2q28 0 39.5 -21t1.5 -53l-465 -1509q-14 -47 -49 -47h-2q-28 0 -39.5 20.5t-1.5 52.5z" />
<glyph unicode="0" horiz-adv-x="1306" d="M76 717q0 177 46 317t125.5 228t183 134t222.5 46t222.5 -46t183.5 -134t126 -228t46 -317q0 -179 -46 -320t-126 -228t-183 -132t-223 -45t-223 45t-182.5 132t-125.5 228t-46 320zM186 715q0 -312 127.5 -473.5t339.5 -161.5q211 0 338 161.5t127 473.5q0 313 -127 476 t-338 163q-212 0 -339.5 -163t-127.5 -476z" />
<glyph unicode="1" horiz-adv-x="598" d="M10 1225v2q0 23 35 43l254 147q38 21 59 21h4q41 0 41 -41v-1350q0 -26 -15 -39.5t-38 -13.5h-4q-23 0 -38 13.5t-15 39.5v1268l-199 -117q-26 -16 -43 -16t-29 12t-12 31z" />
<glyph unicode="2" horiz-adv-x="1021" d="M47 47v10q0 35 41 76l391 387q178 174 262 296.5t84 246.5q0 137 -79.5 213t-231.5 76q-70 0 -126 -15t-90 -36.5t-59.5 -43t-47 -36.5t-39.5 -15q-19 0 -32.5 11.5t-13.5 31.5v2q0 30 33 58q64 54 162 93.5t219 39.5q200 0 307 -100t107 -279q0 -61 -21 -124t-51.5 -117 t-84.5 -120t-101 -116t-119 -121l-381 -373h727q43 0 43 -45v-2q0 -45 -43 -45h-811q-45 0 -45 47z" />
<glyph unicode="3" horiz-adv-x="999" d="M37 164v2q0 20 13 33.5t32 13.5q18 0 48.5 -21t63 -45.5t99 -45.5t149.5 -21q184 0 280.5 87.5t96.5 244.5q0 77 -27.5 133.5t-77.5 89t-112 48t-137 15.5h-90q-45 0 -45 45v2q0 46 45 46h74q157 0 248 71.5t91 210.5q0 137 -79 209t-236 72q-85 0 -148.5 -18 t-91.5 -39.5t-55 -39.5t-47 -18q-19 0 -31 11.5t-12 31.5v2q0 29 41 59q59 43 149 71t199 28q202 0 309 -92.5t107 -270.5q0 -130 -67.5 -211t-180.5 -116v-4q133 -31 209 -114t76 -224q0 -199 -124.5 -308.5t-356.5 -109.5q-118 0 -218 33.5t-161 83.5q-33 26 -33 55z" />
<glyph unicode="4" horiz-adv-x="1101" d="M33 418v8q0 27 8 45t31 47l673 873q19 24 34.5 33.5t41.5 9.5h4q23 0 38.5 -14t15.5 -40v-923h149q41 0 41 -41v-4q0 -41 -41 -41h-149v-324q0 -26 -15.5 -39.5t-38.5 -13.5h-4q-23 0 -38 13.5t-15 39.5v324h-688q-47 0 -47 47zM137 457h631v817h-4l-627 -813v-4z" />
<glyph unicode="5" horiz-adv-x="1030" d="M45 156v2q0 19 12.5 32t32.5 13q18 0 44 -19.5t55 -43t94 -43t151 -19.5q192 0 303 107.5t111 293.5q0 181 -93.5 269t-248.5 88q-75 0 -136 -23t-92 -50t-63 -50t-57 -23t-41.5 15.5t-16.5 39.5v635q0 23 14 38.5t40 15.5h694q45 0 45 -45v-5q0 -45 -45 -45h-660v-538h7 q47 47 133 85t200 38q88 0 164 -26.5t136.5 -78t95 -137.5t34.5 -197q0 -225 -145 -359t-379 -134q-217 0 -354 104q-35 26 -35 60z" />
<glyph unicode="6" horiz-adv-x="1159" d="M76 686q0 183 49 327.5t136.5 237.5t206 142t259.5 49q151 0 242 -43q49 -22 49 -60v-2q0 -20 -12 -32.5t-31 -12.5q-18 0 -47 16t-80.5 32t-124.5 16q-119 0 -217.5 -43.5t-170 -126.5t-111 -211t-40.5 -289v-8q77 88 201.5 141t257.5 53q92 0 171 -24.5t142 -73.5 t99.5 -130t36.5 -187q0 -213 -135 -339t-349 -126q-113 0 -207.5 41t-168 123t-115 217.5t-41.5 312.5zM188 580q10 -131 45.5 -229t91.5 -157t126.5 -87.5t156.5 -28.5q171 0 273 99.5t102 277.5q0 170 -98 250.5t-264 80.5q-127 0 -244 -57t-189 -149z" />
<glyph unicode="7" horiz-adv-x="1011" d="M51 1384v5q0 45 45 45h819q23 0 38.5 -14t15.5 -40v-8q0 -43 -23 -90l-584 -1247q-18 -41 -55 -41h-2q-33 0 -46.5 27t5.5 67l619 1247v4h-787q-45 0 -45 45z" />
<glyph unicode="8" horiz-adv-x="1130" d="M66 393q0 137 87 238t220 133v4q-104 31 -173 116t-69 201q0 159 118.5 258t315.5 99q195 0 313.5 -99t118.5 -258q0 -116 -68 -201t-171 -116v-4q137 -33 222 -133t85 -238q0 -182 -131.5 -291.5t-368.5 -109.5q-238 0 -368.5 109t-130.5 292zM172 397 q0 -145 100.5 -233t292.5 -88q190 0 291.5 88t101.5 233t-102.5 235.5t-290.5 90.5q-189 0 -291 -90.5t-102 -235.5zM240 1081q0 -125 85.5 -198.5t239.5 -73.5q153 0 239.5 73.5t86.5 198.5q0 126 -86.5 201.5t-239.5 75.5q-154 0 -239.5 -75t-85.5 -202z" />
<glyph unicode="9" horiz-adv-x="1153" d="M61 975q0 215 134 341t350 126q113 0 207.5 -41t168 -123t115 -217.5t41.5 -312.5q0 -367 -174 -561.5t-479 -194.5q-162 0 -254 45q-45 22 -45 57v2q0 20 11.5 33.5t31.5 13.5q14 0 37 -10t46.5 -22.5t71 -22.5t105.5 -10q260 0 399.5 171.5t139.5 498.5v8 q-76 -89 -200.5 -142t-256.5 -53q-92 0 -171 24.5t-142 73.5t-99.5 130t-36.5 186zM172 979q0 -170 97.5 -251t262.5 -81q124 0 241 56t190 147q-19 258 -131 382t-287 124q-171 0 -272 -99.5t-101 -277.5z" />
<glyph unicode=":" horiz-adv-x="303" d="M74 70q0 33 22.5 56.5t55.5 23.5q32 0 54.5 -23.5t22.5 -56.5q0 -34 -22.5 -56t-54.5 -22q-34 0 -56 22t-22 56zM74 707q0 34 22 56.5t56 22.5q32 0 54.5 -22.5t22.5 -56.5q0 -32 -22.5 -55t-54.5 -23q-33 0 -55.5 22.5t-22.5 55.5z" />
<glyph unicode=";" horiz-adv-x="303" d="M45 -131q0 22 37 37q55 22 55 67q0 7 -1.5 13t-6 10.5t-7.5 7t-9.5 7t-8.5 5.5q-32 22 -32 62q0 31 22 51.5t56 20.5t57.5 -27t23.5 -82q0 -170 -139 -199q-47 -10 -47 25v2zM74 707q0 34 22 56.5t56 22.5q32 0 54.5 -22.5t22.5 -56.5q0 -32 -22.5 -55t-54.5 -23 q-33 0 -55.5 22.5t-22.5 55.5z" />
<glyph unicode="&#x3c;" horiz-adv-x="940" d="M57 672v6q0 36 39 55l709 381q26 13 47.5 1.5t21.5 -38.5v-2q0 -28 -36 -47l-668 -350v-4l668 -352q36 -19 36 -48v-2q0 -26 -21.5 -37.5t-47.5 1.5l-709 380q-39 20 -39 56z" />
<glyph unicode="=" horiz-adv-x="989" d="M61 471v4q0 18 11 30.5t32 12.5h781q21 0 32 -12.5t11 -30.5v-4q0 -18 -11 -30.5t-32 -12.5h-781q-21 0 -32 12.5t-11 30.5zM61 813v4q0 18 11 30.5t32 12.5h781q21 0 32 -12.5t11 -30.5v-4q0 -18 -11 -30.5t-32 -12.5h-781q-21 0 -32 12.5t-11 30.5z" />
<glyph unicode="&#x3e;" horiz-adv-x="940" d="M66 272v2q0 29 36 48l668 352v4l-668 350q-36 19 -36 47v2q0 27 21.5 38.5t47.5 -1.5l709 -381q39 -19 39 -55v-6q0 -36 -39 -56l-709 -380q-26 -13 -47.5 -1.5t-21.5 37.5z" />
<glyph unicode="?" horiz-adv-x="876" d="M72 1284v2q0 39 55 74q131 82 311 82q175 0 274 -83t99 -243q0 -35 -6.5 -68t-16 -59t-27.5 -55.5t-33 -49.5t-41.5 -48.5t-44 -45.5t-50 -48t-49.5 -48q-43 -41 -62 -61t-44 -54.5t-38 -68.5q-20 -52 -20 -178q0 -21 -12.5 -32t-28.5 -11h-4q-40 0 -43 43 q-7 97 11.5 167t55.5 122.5t115 132.5q9 9 49.5 48t54.5 54.5t44.5 53t43 64t24 66.5t11.5 80q0 113 -68 174.5t-196 61.5q-66 0 -117.5 -12.5t-80.5 -30t-50 -34.5t-39 -29.5t-36 -12.5t-29.5 13t-11.5 34zM268 70q0 33 22.5 56.5t55.5 23.5q32 0 56 -24t24 -56 q0 -33 -23.5 -55.5t-56.5 -22.5q-34 0 -56 22t-22 56z" />
<glyph unicode="@" horiz-adv-x="1755" d="M68 502q0 159 51 298t136.5 237t197 169t233.5 105.5t244 34.5q126 0 239.5 -27t208 -82t164 -133t108 -185t38.5 -233q0 -110 -26.5 -201t-70.5 -152.5t-102.5 -104.5t-121 -62t-128.5 -19q-107 0 -154.5 51t-44.5 128q-162 -183 -335 -183q-105 0 -169.5 68t-64.5 195 q0 96 37 194t100.5 177t156.5 129t196 50q127 0 210 -71q12 39 23.5 56t34.5 17h2q19 0 28 -12.5t3 -36.5l-119 -501q-21 -90 3.5 -137.5t108.5 -47.5q50 0 97.5 15.5t92.5 51t78.5 88t53.5 132t20 176.5q0 275 -183.5 428.5t-483.5 153.5q-112 0 -221.5 -30.5t-209 -94 t-175 -152.5t-120 -215.5t-44.5 -273.5q0 -174 55 -305.5t153 -210t223.5 -116.5t276.5 -38q130 0 232.5 24t150 52t85.5 52t55 24q16 0 26 -10.5t10 -24.5v-2q0 -32 -34 -56q-88 -64 -229 -99.5t-296 -35.5q-129 0 -244 26t-218 84t-177 143t-117.5 211.5t-43.5 281.5z M565 406q0 -92 43.5 -138.5t110.5 -46.5q41 0 81 13t68.5 29t66.5 49t57.5 52.5t58.5 61.5l92 393q-37 28 -77.5 43t-102.5 15q-106 0 -199 -69t-146 -177.5t-53 -224.5z" />
<glyph unicode="A" horiz-adv-x="1249" d="M69 14q-6 10 -6 24q0 15 7 36l473 1302q22 58 80 58h10q58 0 80 -58l467 -1302q7 -18 7 -32q-1 -16 -9 -27q-16 -21 -43 -21h-2q-39 0 -56 51l-145 404h-621l-141 -398q-19 -57 -57 -57h-2q-30 0 -42 20zM344 539h557l-276 774h-4z" />
<glyph unicode="B" horiz-adv-x="1183" d="M174 53v1327q0 26 15 40t38 14h353q454 0 454 -357q0 -71 -19 -125t-56 -90.5t-79 -60.5t-100 -43v-2q72 -16 126.5 -40t101.5 -65t71.5 -105.5t24.5 -150.5q0 -199 -132.5 -297t-359.5 -98h-385q-23 0 -38 13.5t-15 39.5zM283 90h327q174 0 277.5 76t103.5 233 q0 308 -405 308h-303v-617zM283 797h290q76 0 137 14.5t110.5 45.5t76.5 86t27 130q0 270 -346 270h-295v-546z" />
<glyph unicode="C" horiz-adv-x="1257" d="M100 721q0 172 50.5 310.5t137 227.5t200 136t243.5 47q236 0 381 -103q55 -39 55 -75v-2q0 -22 -13.5 -35t-33.5 -13q-19 0 -40.5 14.5t-48 35t-62 41t-96 35t-136.5 14.5q-112 0 -207 -40.5t-166 -118t-111 -198t-40 -272.5q0 -311 136 -478t372 -167q87 0 157.5 17.5 t111.5 42t70.5 49t50 42t34.5 17.5q20 0 33.5 -12.5t13.5 -32.5v-2q0 -35 -55 -78q-166 -131 -418 -131q-280 0 -449.5 191.5t-169.5 537.5z" />
<glyph unicode="D" horiz-adv-x="1361" d="M174 53v1327q0 26 15 40t38 14h330q363 0 542 -170t179 -545q0 -374 -180 -546.5t-543 -172.5h-328q-23 0 -38 13.5t-15 39.5zM283 90h272q316 0 463 146t147 481q0 334 -147 480t-463 146h-272v-1253z" />
<glyph unicode="E" d="M174 53v1327q0 26 15 40t38 14h764q18 0 30.5 -11t12.5 -32v-5q0 -22 -12 -33.5t-31 -11.5h-708v-557h526q18 0 30.5 -11t12.5 -32v-4q0 -21 -12.5 -32t-30.5 -11h-526v-604h737q18 0 30.5 -11t12.5 -32v-4q0 -21 -12.5 -32t-30.5 -11h-793q-23 0 -38 13.5t-15 39.5z" />
<glyph unicode="F" horiz-adv-x="1095" d="M174 47v1333q0 26 15 40t38 14h764q21 0 32 -12.5t11 -30.5v-5q0 -20 -11 -32.5t-32 -12.5h-708v-593h516q21 0 32 -12.5t11 -30.5v-5q0 -18 -11 -30.5t-32 -12.5h-516v-610q0 -26 -15 -39.5t-37 -13.5h-4q-23 0 -38 13.5t-15 39.5z" />
<glyph unicode="G" horiz-adv-x="1368" d="M84 721q0 176 52 315.5t143.5 227t212 133t262.5 45.5q241 0 379 -90q41 -26 41 -66v-2q0 -22 -12 -34.5t-32 -12.5q-17 0 -44 18.5t-58.5 40t-104 40t-169.5 18.5q-121 0 -220.5 -38t-174.5 -113.5t-116.5 -197.5t-41.5 -280q0 -319 141 -482t401 -163q213 0 365 80v452 h-281q-43 0 -43 43v4q0 43 43 43h336q26 0 40 -15t14 -38v-485q0 -32 -13 -50.5t-45 -33.5q-172 -88 -416 -88q-309 0 -484 186t-175 543z" />
<glyph unicode="H" horiz-adv-x="1394" d="M174 47v1339q0 26 15 40t38 14h2q23 0 38.5 -14t15.5 -40v-602h829v602q0 26 15 40t38 14h4q22 0 37 -14t15 -40v-1339q0 -26 -15 -39.5t-37 -13.5h-4q-23 0 -38 13.5t-15 39.5v647h-829v-647q0 -26 -15.5 -39.5t-38.5 -13.5h-2q-23 0 -38 13.5t-15 39.5z" />
<glyph unicode="I" horiz-adv-x="466" d="M178 47v1339q0 26 15 40t38 14h5q23 0 38 -14t15 -40v-1339q0 -26 -15 -39.5t-38 -13.5h-5q-23 0 -38 13.5t-15 39.5z" />
<glyph unicode="J" horiz-adv-x="837" d="M31 109v2q0 21 13 34t34 13q15 0 34.5 -12.5t38 -27.5t60.5 -27.5t96 -12.5q254 0 254 252v1056q0 26 15 40t38 14h4q23 0 38.5 -14t15.5 -40v-1058q0 -162 -90 -250t-269 -88q-136 0 -225 45q-57 28 -57 74z" />
<glyph unicode="K" horiz-adv-x="1261" d="M174 47v1342q0 25 15 38t38 13h2q23 0 38.5 -13t15.5 -38v-779l749 797q29 33 53 33h2q31 0 41 -26q3 -7 2 -15q0 -21 -22 -47l-481 -504l540 -766q15 -22 15 -41q0 -11 -5 -21q-13 -26 -44 -26h-3q-30 0 -55 39l-520 739l-272 -289v-436q0 -26 -15.5 -39.5t-38.5 -13.5 h-2q-23 0 -38 13.5t-15 39.5z" />
<glyph unicode="L" horiz-adv-x="1099" d="M174 53v1333q0 26 15 40t38 14h2q23 0 38.5 -14t15.5 -40v-1296h710q18 0 30.5 -11t12.5 -32v-4q0 -21 -12.5 -32t-30.5 -11h-766q-22 0 -37.5 15.5t-15.5 37.5z" />
<glyph unicode="M" horiz-adv-x="1658" d="M174 43v1335q0 27 15 41.5t38 14.5h56q35 0 53 -12t29 -42l466 -1214h5l460 1214q11 30 29 42t53 12h56q23 0 38 -14.5t15 -41.5v-1331q0 -26 -15 -39.5t-38 -13.5h-4q-23 0 -38.5 13.5t-15.5 39.5v1256h-10l-485 -1270q-13 -37 -47 -37h-13q-36 0 -49 37l-487 1270h-9 v-1260q0 -49 -49 -49h-4q-49 0 -49 49z" />
<glyph unicode="N" horiz-adv-x="1384" d="M174 45v1333q0 27 15 41.5t38 14.5h33q29 0 46 -12t36 -40l764 -1185h2v1192q0 25 14 38t37 13h2q23 0 37 -13t14 -38v-1338q0 -55 -53 -55h-6q-27 0 -42 11t-34 40l-796 1241h-5v-1243q0 -25 -14 -38t-37 -13h-2q-22 0 -35.5 13t-13.5 38z" />
<glyph unicode="O" horiz-adv-x="1454" d="M84 717q0 138 33 255.5t92.5 203t140.5 146t177 90.5t202 30q105 0 200.5 -30t175.5 -90.5t139.5 -146t92.5 -203.5t33 -255q0 -172 -51 -311.5t-139 -228.5t-203.5 -137t-247.5 -48q-133 0 -249.5 48t-205 137.5t-139.5 228.5t-51 311zM197 715q0 -154 40.5 -276 t112.5 -200.5t168.5 -119.5t210.5 -41q112 0 208 41t167.5 119.5t112 200.5t40.5 276t-40.5 277t-112 202t-167.5 120.5t-208 41.5q-114 0 -210.5 -41.5t-168.5 -120.5t-112.5 -202t-40.5 -277z" />
<glyph unicode="P" horiz-adv-x="1126" d="M174 47v1333q0 26 15 40t38 14h320q244 0 376 -96.5t132 -313.5q0 -114 -34.5 -196.5t-102 -132t-159.5 -72.5t-214 -23h-262v-553q0 -26 -15.5 -39.5t-38.5 -13.5h-4q-51 0 -51 53zM283 688h262q201 0 300 76.5t99 255.5q0 176 -101.5 249.5t-297.5 73.5h-262v-655z" />
<glyph unicode="Q" horiz-adv-x="1462" d="M84 717q0 172 51 311t139.5 228.5t205 137.5t249.5 48q132 0 247.5 -48t203.5 -137t139 -228.5t51 -311.5q0 -296 -143.5 -481t-370.5 -222v-4l498 -96q47 -9 47 -49v-2q0 -49 -49 -49q-20 0 -52 8l-667 168q-549 139 -549 727zM197 715q0 -154 41 -277t113.5 -201.5 t169 -119.5t210.5 -41q233 0 379.5 166.5t146.5 472.5q0 155 -40.5 278.5t-112.5 202t-167.5 119.5t-207.5 41q-114 0 -210.5 -41t-168.5 -119.5t-112.5 -202t-40.5 -278.5z" />
<glyph unicode="R" horiz-adv-x="1224" d="M178 47v1333q0 26 15 40t38 14h330q492 0 492 -390q0 -291 -260 -366l325 -604q9 -19 9 -34q0 -14 -7 -24q-14 -22 -43 -22h-2q-32 0 -53 41l-336 620q-58 -6 -125 -6h-272v-602q0 -26 -15 -39.5t-38 -13.5h-5q-23 0 -38 13.5t-15 39.5zM289 737h268q94 0 162 14t120 48 t77.5 93.5t25.5 147.5q0 84 -27.5 144t-80.5 94.5t-120.5 49.5t-156.5 15h-268v-606z" />
<glyph unicode="S" horiz-adv-x="1040" d="M45 170v2q0 20 12.5 33.5t32.5 13.5q15 0 33.5 -14.5t44.5 -34.5t63 -40.5t103 -35t151 -14.5q173 0 272 75.5t99 231.5q0 35 -7 64.5t-15.5 52.5t-29 44.5t-35 35t-47 29.5t-50 24t-60 21t-61.5 18t-68 18q-82 22 -140.5 44t-111 53t-84 70t-49.5 93t-18 123 q0 161 114 263t318 102q212 0 340 -86q45 -29 45 -70v-2q0 -21 -13 -33t-32 -12q-18 0 -43 18t-53 39.5t-92 39.5t-150 18q-167 0 -248.5 -74t-81.5 -195q0 -48 10 -86t33 -66.5t48 -48t68 -37t78 -28.5t93 -26q96 -25 159 -46.5t123 -54t93.5 -71.5t53.5 -95.5t20 -130.5 q0 -136 -62 -228t-166.5 -133.5t-247.5 -41.5q-129 0 -233 30t-166 78q-43 34 -43 70z" />
<glyph unicode="T" horiz-adv-x="1132" d="M37 1386v5q0 21 12.5 32t30.5 11h973q18 0 30.5 -11t12.5 -32v-5q0 -21 -12.5 -32t-30.5 -11h-430v-1296q0 -26 -15.5 -39.5t-38.5 -13.5h-4q-23 0 -38 13.5t-15 39.5v1296h-432q-18 0 -30.5 11t-12.5 32z" />
<glyph unicode="U" horiz-adv-x="1376" d="M164 485v901q0 26 15 40t38 14h2q23 0 38 -14t15 -40v-905q0 -111 33.5 -191t94 -124t134.5 -64t166 -20q71 0 129 11t111 39.5t89.5 73t57.5 114.5t21 161v908q0 25 14 38t37 13h4q23 0 37 -13t14 -38v-904q0 -131 -39 -228t-110.5 -154t-163.5 -84t-207 -27 q-114 0 -207 27t-167 83.5t-115 153.5t-41 229z" />
<glyph unicode="V" horiz-adv-x="1241" d="M68 1358q-7 18 -7 32q0 16 9 28q16 22 43 22h2q38 0 55 -49l453 -1256h4l446 1251q19 54 55 54h2q30 0 44 -22q7 -11 7 -27q0 -15 -7 -33l-474 -1303q-13 -34 -27.5 -46.5t-47.5 -12.5h-9q-33 0 -47.5 12.5t-27.5 46.5z" />
<glyph unicode="W" horiz-adv-x="1775" d="M72 1368q-3 11 -3 21q-1 19 9 31q14 20 45 20h2q40 0 51 -47l307 -1219h6l342 1217q14 49 60 49h6q45 0 59 -49l344 -1217h7l307 1219q11 47 51 47h2q29 0 43 -20q10 -13 10 -30q0 -8 -2 -18l-342 -1321q-8 -30 -23.5 -43.5t-47.5 -13.5h-9q-33 0 -49 13.5t-24 43.5 l-328 1194h-4l-336 -1200q-8 -28 -23.5 -39.5t-46.5 -11.5h-8q-31 0 -47 12t-22 41z" />
<glyph unicode="X" horiz-adv-x="1222" d="M82 18q-6 10 -5 21q0 16 11 35l457 671l-420 609q-22 32 -9 59t46 27h2q27 0 51 -39l401 -578l392 580q24 37 49 37h2q29 0 42.5 -24t-5.5 -56l-418 -617l450 -663q13 -20 13 -39q0 -10 -4 -20q-12 -27 -45 -27h-2q-28 0 -52 39l-432 637l-430 -637q-25 -39 -49 -39h-2 q-29 0 -43 24z" />
<glyph unicode="Y" horiz-adv-x="1122" d="M64 1415q14 25 45 25h2q31 0 51 -39l401 -699h4l404 703q21 35 47 35h2q29 0 43 -22q7 -10 7 -22q0 -13 -9 -30l-443 -762v-557q0 -26 -15 -39.5t-38 -13.5h-4q-23 0 -38 13.5t-15 39.5v553l-440 758q-9 18 -9 33q0 13 5 24z" />
<glyph unicode="Z" horiz-adv-x="1085" d="M35 47v10q0 37 26 74l867 1212v3h-803q-41 0 -41 43v4q0 41 43 41h872q45 0 45 -48v-10q0 -19 -3.5 -33t-8 -21t-14.5 -22l-864 -1210v-4h833q41 0 41 -41v-4q0 -41 -41 -41h-907q-45 0 -45 47z" />
<glyph unicode="[" horiz-adv-x="555" d="M154 -47v1511q0 26 15 40t38 14h270q19 0 29 -11.5t10 -27.5v-4q0 -16 -10 -27.5t-29 -11.5h-221v-1454h221q19 0 29 -11.5t10 -27.5v-4q0 -16 -10 -27.5t-29 -11.5h-270q-23 0 -38 13.5t-15 39.5z" />
<glyph unicode="\" horiz-adv-x="622" d="M37 1450q-10 32 1.5 53t39.5 21h2q35 0 49 -47l465 -1510q10 -32 -1.5 -52.5t-39.5 -20.5h-2q-35 0 -49 47z" />
<glyph unicode="]" horiz-adv-x="555" d="M39 -57q0 16 10 27.5t29 11.5h221v1454h-221q-19 0 -29 11.5t-10 27.5v4q0 16 10 27.5t29 11.5h270q23 0 38 -14t15 -40v-1511q0 -26 -15 -39.5t-38 -13.5h-270q-19 0 -29 11.5t-10 27.5v4z" />
<glyph unicode="^" horiz-adv-x="1857" d="M69.5 802q-4.5 20 6.5 38q134 240 355 380t482 140q245 0 474.5 -142t375.5 -378q-145 -223 -349.5 -356.5t-399.5 -133.5q-139 0 -238.5 89t-99.5 216q0 97 69.5 165.5t167.5 68.5q81 0 142 -51.5t73 -128.5q5 -23 -7.5 -42.5t-43.5 -19.5q-19 0 -31.5 11.5t-15.5 31.5 q-7 43 -40.5 70.5t-76.5 27.5q-57 0 -96 -38.5t-39 -94.5q0 -85 69.5 -145.5t166.5 -60.5q99 0 175.5 77.5t76.5 178.5q0 132 -103.5 226.5t-249.5 94.5q-182 0 -310 -124.5t-128 -299.5q0 -153 80.5 -284.5t220 -215.5t309.5 -102q21 -2 33 -15t12 -34q0 -25 -17 -39.5 t-40 -11.5q-195 21 -355.5 119t-252.5 251.5t-92 331.5q0 107 42.5 203.5t115 167t172.5 112t210 41.5q187 0 320 -124t133 -297q0 -101 -63 -185q194 117 339 320q-134 193 -330 306.5t-399 113.5q-231 0 -427 -126t-322 -343q-9 -18 -29 -24t-41 5q-20 10 -24.5 30z" />
<glyph unicode="_" horiz-adv-x="667" d="M-12 -291q0 39 39 39h616q37 0 37 -39v-4q0 -37 -37 -37h-616q-39 0 -39 37v4z" />
<glyph unicode="`" horiz-adv-x="843" d="M227 1421q11 29 43 29h2q33 0 62 -45l123 -180q15 -22 6 -41t-33 -19h-2q-17 0 -35 21l-151 174q-26 32 -15 61z" />
<glyph unicode="a" horiz-adv-x="1005" d="M57 299q0 156 116 234.5t312 78.5q159 0 281 -32v192q0 225 -262 225q-85 0 -148 -15t-90 -33t-52 -33t-44 -15q-18 0 -30.5 11t-12.5 32v2q0 39 70 72q129 61 311 61q360 0 360 -301v-735q0 -49 -45 -49h-2q-29 0 -42 22t-13 78v51q-74 -77 -157.5 -116t-207.5 -39 q-154 0 -249 81t-95 228zM162 307q0 -121 69.5 -179t184.5 -58q82 0 149 24t110.5 59t90.5 91v262q-150 33 -274 33q-150 0 -240 -57.5t-90 -174.5z" />
<glyph unicode="b" horiz-adv-x="1130" d="M145 43v1348q0 49 45 49h3q29 0 42 -19.5t13 -74.5v-469q173 202 405 202q64 0 121 -15.5t111 -54t92.5 -97.5t62 -152.5t23.5 -212.5q0 -122 -27 -219t-70.5 -159t-104 -103t-123.5 -57.5t-132 -16.5q-122 0 -206.5 32.5t-151.5 92.5v-19q0 -104 -55 -104h-3 q-45 0 -45 49zM248 213q65 -71 145.5 -106t192.5 -35q56 0 106.5 12.5t100 46t85.5 84.5t58 134t22 190q0 105 -19.5 187t-50 131.5t-74 81.5t-86.5 44t-91 12q-207 0 -389 -219v-563z" />
<glyph unicode="c" horiz-adv-x="978" d="M66 537q0 250 139.5 396t365.5 146q181 0 287 -71q47 -32 47 -68v-2q0 -19 -12 -31t-31 -12q-17 0 -39.5 16t-47 35t-79 35t-127.5 16q-181 0 -290 -122.5t-109 -337.5q0 -219 105.5 -341t293.5 -122q64 0 115 12.5t80 30.5t50.5 35.5t38 30t30.5 12.5q20 0 30.5 -11.5 t10.5 -29.5v-2q0 -32 -35 -60q-121 -100 -324 -100q-234 0 -366.5 146t-132.5 399z" />
<glyph unicode="d" horiz-adv-x="1134" d="M68 524q0 120 26.5 216.5t70.5 158.5t104 103.5t123 59t132 17.5q227 0 357 -133v443q0 51 47 51h2q29 0 42 -19.5t13 -74.5v-1303q0 -49 -45 -49h-2q-30 0 -43.5 21.5t-13.5 78.5v90q-68 -87 -169.5 -139.5t-222.5 -52.5q-85 0 -157.5 28t-133 88t-95.5 166.5t-35 249.5 zM172 528q0 -127 28 -219.5t76.5 -142t104 -72t119.5 -22.5q122 0 213.5 57t167.5 160v565q-67 72 -147 108.5t-193 36.5q-47 0 -90 -9.5t-85.5 -29.5t-76.5 -56.5t-61 -87t-41.5 -124t-14.5 -164.5z" />
<glyph unicode="e" horiz-adv-x="1038" d="M66 530q0 248 133 398.5t340 150.5q205 0 321.5 -123.5t116.5 -375.5q0 -25 -13.5 -37.5t-35.5 -12.5h-758q0 -224 102.5 -339t302.5 -115q85 0 150 17t94 37t53.5 37t38.5 17q20 0 31.5 -10.5t11.5 -28.5v-2q0 -28 -39 -55q-139 -96 -350 -96q-239 0 -369 143t-130 395z M172 608h702q-8 393 -335 393q-152 0 -250.5 -100.5t-116.5 -292.5z" />
<glyph unicode="f" horiz-adv-x="548" d="M16 1026v4q0 37 41 37h107v107q0 134 68.5 200t181.5 66q56 0 92 -8q43 -10 43 -41v-2q0 -37 -41 -37h-6q-8 0 -31.5 2t-32.5 2q-88 0 -130 -41.5t-42 -147.5v-100h223q41 0 41 -37v-4q0 -37 -41 -37h-223v-946q0 -49 -49 -49h-4q-49 0 -49 49v946h-107q-41 0 -41 37z " />
<glyph unicode="g" horiz-adv-x="1130" d="M68 532q0 117 26.5 211.5t71 156t104.5 103t123.5 59t132.5 17.5q224 0 355 -131q0 70 14 97.5t43 27.5h2q45 0 45 -49v-1012q0 -114 -62.5 -195t-163 -119t-227.5 -38q-229 0 -368 76q-41 21 -41 53v2q0 18 11 30.5t30 12.5q16 0 43.5 -14.5t59 -32.5t99 -32.5 t154.5 -14.5q77 0 140.5 15.5t114 47t78.5 86.5t28 129v179q-73 -86 -173.5 -137.5t-222.5 -51.5q-82 0 -153.5 28t-132 87t-96 164t-35.5 245zM172 537q0 -126 28 -217t76.5 -139.5t104 -70.5t119.5 -22q221 0 381 215v549q-68 73 -147.5 110t-188.5 37q-57 0 -107 -12 t-100 -44t-85.5 -82.5t-58 -133.5t-22.5 -190z" />
<glyph unicode="h" horiz-adv-x="1128" d="M145 43v1348q0 49 45 49h3q29 0 42 -19.5t13 -74.5v-449q229 182 469 182q276 0 276 -284v-752q0 -49 -49 -49h-4q-49 0 -49 49v739q0 119 -56 165t-157 46q-193 0 -430 -180v-770q0 -49 -49 -49h-4q-50 0 -50 49z" />
<glyph unicode="i" horiz-adv-x="403" d="M133 1300q0 28 20.5 49t49.5 21t49 -21t20 -49q0 -29 -20 -49t-49 -20t-49.5 20t-20.5 49zM150 43v981q0 49 45 49h2q29 0 42 -19.5t13 -74.5v-936q0 -49 -49 -49h-4q-49 0 -49 49z" />
<glyph unicode="j" horiz-adv-x="403" d="M-55 -291q0 34 43 37q95 4 128.5 36t33.5 112v1130q0 49 45 49h2q29 0 42 -19.5t13 -74.5v-1090q0 -225 -215 -225q-31 0 -47 2q-45 6 -45 39v4zM133 1300q0 28 20.5 49t49.5 21t49 -21t20 -49q0 -29 -20 -49t-49 -20t-49.5 20t-20.5 49z" />
<glyph unicode="k" horiz-adv-x="970" d="M145 43v1348q0 49 45 49h3q29 0 42 -19.5t13 -74.5v-883l540 581q26 29 48 29h2q26 0 37.5 -24.5t-13.5 -53.5l-354 -372l391 -551q11 -17 11 -32q0 -12 -6 -22q-14 -24 -42 -24h-2q-24 0 -49 35l-371 524l-192 -207v-303q0 -49 -49 -49h-4q-50 0 -50 49z" />
<glyph unicode="l" horiz-adv-x="397" d="M147 43v1348q0 49 46 49h2q29 0 42 -19.5t13 -74.5v-1303q0 -49 -49 -49h-4q-50 0 -50 49z" />
<glyph unicode="m" horiz-adv-x="1757" d="M145 43v981q0 49 45 49h3q29 0 42 -19.5t13 -74.5v-74q216 174 426 174q94 0 163 -43t91 -133q209 176 430 176q118 0 191 -63.5t73 -198.5v-774q0 -49 -49 -49h-4q-49 0 -49 49v748q0 113 -50 157.5t-149 44.5q-103 0 -192.5 -45.5t-192.5 -126.5v-778q0 -49 -49 -49h-4 q-49 0 -49 49v748q0 111 -51.5 156.5t-145.5 45.5q-107 0 -198.5 -46t-190.5 -128v-776q0 -49 -49 -49h-4q-50 0 -50 49z" />
<glyph unicode="n" horiz-adv-x="1128" d="M145 43v981q0 49 45 49h3q29 0 42 -19.5t13 -74.5v-82q229 182 469 182q276 0 276 -284v-752q0 -49 -49 -49h-4q-49 0 -49 49v739q0 119 -56 165t-157 46q-193 0 -430 -180v-770q0 -49 -49 -49h-4q-50 0 -50 49z" />
<glyph unicode="o" d="M66 535q0 250 136 397t359 147q226 0 362 -147t136 -397q0 -251 -136 -397t-362 -146q-224 0 -359.5 146t-135.5 397zM170 535q0 -219 104.5 -341t286.5 -122q184 0 288.5 122t104.5 341q0 218 -105 341t-288 123q-182 0 -286.5 -123t-104.5 -341z" />
<glyph unicode="p" horiz-adv-x="1130" d="M145 -289v1313q0 49 45 49h3q29 0 42 -19.5t13 -74.5v-102q173 202 405 202q64 0 121 -15.5t111 -53.5t92.5 -96.5t62 -151.5t23.5 -211q0 -122 -27 -219t-71 -158.5t-104.5 -102t-123.5 -57t-133 -16.5q-217 0 -356 125v-412q0 -49 -49 -49h-4q-50 0 -50 49zM248 221 q65 -71 145.5 -106t192.5 -35q57 0 107 12t100 44.5t85.5 82.5t57.5 132.5t22 189.5q0 105 -19.5 186.5t-50 131t-74 81t-86.5 43.5t-91 12q-207 0 -389 -219v-555z" />
<glyph unicode="q" horiz-adv-x="1130" d="M68 526q0 120 26.5 216t70.5 158t104 103t123 58.5t132 17.5q230 0 357 -133v33q0 54 13.5 74t43.5 20h2q45 0 45 -49v-1313q0 -49 -49 -49h-6q-49 0 -49 49v479q-68 -87 -169.5 -139.5t-222.5 -52.5q-67 0 -126 16.5t-114 55.5t-94.5 98t-63 151t-23.5 207zM172 532 q0 -103 19 -183.5t50 -130t74.5 -81.5t88.5 -44.5t96 -12.5q122 0 213.5 56.5t167.5 158.5v557q-69 74 -148 110.5t-192 36.5q-58 0 -108 -12.5t-99 -45.5t-84 -84t-56.5 -134.5t-21.5 -190.5z" />
<glyph unicode="r" horiz-adv-x="698" d="M145 43v981q0 49 45 49h3q29 0 42 -19.5t13 -74.5v-96q158 192 350 192q55 0 55 -43v-2q0 -39 -55 -45q-111 -12 -187 -55t-163 -144v-743q0 -49 -49 -49h-4q-50 0 -50 49z" />
<glyph unicode="s" horiz-adv-x="870" d="M68 127v2q0 19 11.5 31t31.5 12q13 0 36.5 -15.5t50 -34.5t83.5 -34.5t129 -15.5q290 0 290 229q0 94 -61.5 139.5t-224.5 71.5q-165 27 -249.5 92t-84.5 193q0 135 97 208.5t261 73.5q159 0 256 -51q54 -26 54 -61v-4q0 -20 -10.5 -31.5t-28.5 -11.5q-13 0 -32.5 12.5 t-42 27t-74 27t-120.5 12.5q-264 0 -264 -194q0 -91 61 -134.5t218 -70.5q178 -28 262 -92.5t84 -198.5q0 -152 -96 -234.5t-291 -82.5q-176 0 -295 69q-28 18 -39.5 32t-11.5 34z" />
<glyph unicode="t" horiz-adv-x="604" d="M16 1026v4q0 37 41 37h107v254q0 49 49 49h4q49 0 49 -49v-254h250q41 0 41 -37v-4q0 -37 -41 -37h-250v-745q0 -94 44 -131t141 -37q9 0 39 3t38 3q45 0 45 -39v-2q0 -33 -43 -41q-41 -8 -114 -8q-126 0 -189 57t-63 182v758h-107q-41 0 -41 37z" />
<glyph unicode="u" horiz-adv-x="1120" d="M135 266v758q0 49 49 49h6q50 0 50 -49v-748q0 -115 52 -159.5t146 -44.5q196 0 430 170v782q0 49 50 49h4q49 0 49 -49v-981q0 -49 -45 -49h-2q-29 0 -42.5 22t-13.5 78v62q-222 -168 -444 -168q-289 0 -289 278z" />
<glyph unicode="v" horiz-adv-x="1013" d="M65 1052q13 22 44 21h2q31 0 49 -47l350 -887h4l348 887q18 47 49 47h2q25 0 37 -20q6 -10 6 -23q0 -14 -6 -31l-377 -958q-10 -26 -23.5 -35.5t-39.5 -9.5h-2q-26 0 -40 9.5t-24 35.5l-378 952q-7 19 -7 34t6 25z" />
<glyph unicode="w" horiz-adv-x="1486" d="M61 1001q-4 13 -4 24q1 16 9 28q14 20 40 20h3q36 0 49 -49l254 -860h4l278 868q11 41 54 41h8q40 0 51 -41l266 -868h4l260 864q15 45 47 45h2q26 0 38 -18q7 -10 7 -25q0 -11 -4 -24l-290 -965q-7 -27 -20 -37t-38 -10h-2q-25 0 -38.5 9.5t-20.5 35.5l-270 868h-5 l-272 -868q-11 -27 -22.5 -36t-36.5 -9h-2q-25 0 -38 10.5t-24 36.5z" />
<glyph unicode="x" horiz-adv-x="980" d="M70 18q-4 9 -4 20q0 17 12 36l336 481l-328 440q-19 31 -4.5 54.5t39.5 23.5h2q25 0 49 -33l311 -419l285 421q22 31 45 31h2q27 0 39 -24.5t-8 -55.5l-297 -436l356 -485q11 -18 11 -33q0 -11 -6 -21q-14 -24 -40 -24h-2q-25 0 -49 33l-340 467l-323 -469 q-22 -31 -45 -31h-2q-27 0 -39 24z" />
<glyph unicode="y" horiz-adv-x="1024" d="M68 995q-6 13 -6 25q0 14 8 26q15 21 43 21h2q31 0 49 -43l360 -827h2l346 831q16 39 48 39h2q28 0 40 -21q7 -10 7 -23q0 -12 -6 -26l-543 -1290q-16 -39 -47 -39h-2q-29 0 -41.5 19.5t0.5 50.5l145 336z" />
<glyph unicode="z" horiz-adv-x="933" d="M68 39v10q0 7 0.5 12.5t2.5 11.5t3 9.5t5 9.5t5 8t6.5 9.5t7.5 9.5l676 868h-631q-39 0 -39 39v4q0 37 39 37h709q39 0 39 -39v-8q0 -34 -25 -66l-682 -874h664q37 0 37 -37v-4q0 -39 -37 -39h-742q-38 0 -38 39z" />
<glyph unicode="{" horiz-adv-x="622" d="M41 723v4q0 16 10 27.5t29 11.5h22q129 0 129 121v397q0 234 238 234h76q19 0 29 -11.5t10 -27.5v-4q0 -16 -10 -27.5t-29 -11.5h-66q-74 0 -108.5 -38t-34.5 -114v-393q0 -134 -125 -164q125 -34 125 -168v-424q0 -153 143 -153h66q19 0 29 -11.5t10 -27.5v-4 q0 -16 -10 -27.5t-29 -11.5h-76q-238 0 -238 237v426q0 121 -129 121h-22q-19 0 -29 11.5t-10 27.5z" />
<glyph unicode="|" horiz-adv-x="415" d="M164 -66v1543q0 41 43 41h4q41 0 41 -41v-1543q0 -40 -41 -40h-4q-43 0 -43 40z" />
<glyph unicode="}" horiz-adv-x="622" d="M39 -57q0 16 10 27.5t29 11.5h65q144 0 144 153v424q0 134 125 168q-125 30 -125 164v393q0 152 -144 152h-65q-19 0 -29 11.5t-10 27.5v4q0 16 10 27.5t29 11.5h76q237 0 237 -234v-397q0 -121 129 -121h23q19 0 29 -11.5t10 -27.5v-4q0 -16 -10 -27.5t-29 -11.5h-23 q-129 0 -129 -121v-426q0 -237 -237 -237h-76q-19 0 -29 11.5t-10 27.5v4z" />
<glyph unicode="~" horiz-adv-x="667" d="M57 545q9 54 50.5 91.5t99.5 37.5q52 0 139.5 -41t116.5 -41q28 0 46 15.5t24 33.5t17 33.5t28 15.5h2q24 0 33 -17t3 -46q-13 -61 -53.5 -95t-97.5 -34q-48 0 -135 41t-117 41q-28 0 -46 -15.5t-24 -34t-18 -34t-29 -15.5h-2q-46 0 -37 64z" />
<glyph unicode="&#xa1;" horiz-adv-x="460" d="M152 1208q0 34 22.5 56t56.5 22t56 -22t22 -56q0 -33 -22.5 -56.5t-55.5 -23.5t-56 23.5t-23 56.5zM174 -106q0 151 3 414t6 450l3 188q3 43 41 43h4q38 0 41 -43q13 -713 13 -1052q0 -26 -15 -41t-39 -15h-4q-24 0 -38.5 15t-14.5 41z" />
<glyph unicode="&#xa2;" horiz-adv-x="983" d="M66 537q0 236 125 380.5t331 159.5v88q0 41 41 41h4q41 0 41 -41v-88q157 -5 264 -78q35 -25 35 -55v-2q0 -19 -12 -32t-31 -13q-15 0 -30.5 9t-33 22t-40.5 27t-62.5 25.5t-89.5 14.5v-921q68 4 119.5 24t74 41t44 38.5t37.5 17.5q20 0 31.5 -12t11.5 -31v-2 q0 -30 -29 -56q-46 -39 -121 -67.5t-168 -32.5v-170q0 -41 -41 -41h-4q-41 0 -41 41v170q-214 13 -335 158t-121 385zM170 537q0 -205 92 -325.5t260 -135.5v919q-162 -15 -257 -136.5t-95 -321.5z" />
<glyph unicode="&#xa3;" horiz-adv-x="1032" d="M53 47v2q0 22 18.5 43.5t44.5 43.5t52 51.5t44.5 81t18.5 118.5q0 112 -30 277h-109q-19 0 -29 11t-10 27v5q0 16 10 27t29 11h92q-45 217 -45 312q0 175 113.5 280t318.5 105q209 0 336 -105q33 -26 33 -57v-2q0 -20 -13 -32.5t-32 -12.5q-18 0 -36 12.5t-39 29.5 t-49.5 34.5t-80 30t-117.5 12.5q-164 0 -244.5 -77t-80.5 -218q0 -104 43 -312h379q19 0 29 -11t10 -27v-5q0 -16 -10 -27t-29 -11h-365q29 -159 29 -277q0 -99 -38 -168t-108 -127h738q21 0 32 -12.5t11 -30.5v-4q0 -20 -11 -32.5t-32 -12.5h-830q-43 0 -43 47z" />
<glyph unicode="&#xa5;" horiz-adv-x="1050" d="M56.5 1416.5q13.5 25.5 47.5 25.5h2q30 0 50 -39l376 -645h3l368 649q21 35 45 35h2q32 0 44 -24.5t-5 -53.5l-383 -664h297q37 0 37 -38v-3q0 -38 -37 -38h-319v-140h319q37 0 37 -39v-2q0 -39 -37 -39h-319v-356q0 -25 -15.5 -39t-38.5 -14h-4q-23 0 -38 14t-15 39v356 h-319q-37 0 -37 39v2q0 39 37 39h319v140h-319q-37 0 -37 38v3q0 38 37 38h292l-383 654q-20 37 -6.5 62.5z" />
<glyph unicode="&#xa6;" horiz-adv-x="276" d="M92 -57v657q0 43 43 43h6q43 0 43 -43v-657q0 -43 -43 -43h-6q-43 0 -43 43zM92 823v658q0 43 43 43h6q43 0 43 -43v-658q0 -43 -43 -43h-6q-43 0 -43 43z" />
<glyph unicode="&#xa7;" horiz-adv-x="1034" d="M59 602q0 223 279 281q-82 42 -121 105t-39 159q0 132 98 213.5t265 81.5q91 0 166.5 -18.5t115.5 -45.5q37 -24 37 -57v-2q0 -17 -12 -29t-29 -12q-19 0 -40.5 13t-43 29t-72 29t-120.5 13q-126 0 -197.5 -58.5t-71.5 -152.5q0 -96 67.5 -151.5t225.5 -94.5 q73 -18 129.5 -37t111 -47.5t89.5 -62.5t56.5 -82t21.5 -105q0 -113 -68 -189t-196 -108q75 -38 112 -92t37 -143q0 -148 -96.5 -227.5t-284.5 -79.5q-193 0 -313 78q-39 25 -39 59v2q0 19 11 31t30 12q17 0 40.5 -16t49 -35t84 -35t135.5 -16q283 0 283 219q0 42 -13 73.5 t-34.5 53.5t-67 43t-90.5 36.5t-127 38.5q-188 53 -278.5 126t-90.5 200zM160 618q0 -96 67.5 -153t229.5 -103l137 -40q133 14 206.5 74.5t73.5 162.5q0 100 -81.5 159.5t-249.5 96.5l-74 19q-309 -23 -309 -216z" />
<glyph unicode="&#xa8;" horiz-adv-x="843" d="M205 1298q0 29 20 49.5t49 20.5t49.5 -20.5t20.5 -49.5q0 -28 -20.5 -47.5t-49.5 -19.5t-49 19.5t-20 47.5zM500 1298q0 29 19.5 49.5t47.5 20.5q29 0 49.5 -20.5t20.5 -49.5q0 -28 -20.5 -47.5t-49.5 -19.5q-28 0 -47.5 19.5t-19.5 47.5z" />
<glyph unicode="&#xa9;" horiz-adv-x="1622" d="M84 717q0 138 38 256.5t106 204t159 147t199 91.5t225 30t225 -30t199 -91.5t159 -147t106 -204t38 -256.5t-38 -256.5t-106 -204t-159 -147t-199 -91.5t-225 -30t-225 30t-199 91.5t-159 147t-106 204t-38 256.5zM172 717q0 -154 50 -279t137.5 -206t203 -125t248.5 -44 t249 44t203.5 125t138 206.5t50.5 278.5t-50.5 278.5t-138 207t-203.5 125.5t-249 44t-248.5 -44t-203 -125.5t-137.5 -206.5t-50 -279zM442 719q0 182 108 289.5t281 107.5q149 0 224 -53q35 -25 35 -53v-2q0 -21 -12.5 -33t-28.5 -12q-15 0 -33 11t-35 24.5t-56.5 24.5 t-93.5 11q-127 0 -204.5 -83t-77.5 -232q0 -155 73.5 -235.5t208.5 -80.5q56 0 96.5 13.5t57.5 29.5t35 29.5t35 13.5q18 0 29.5 -11t11.5 -29v-3q0 -31 -33 -57q-93 -70 -236 -70q-182 0 -283.5 107t-101.5 293z" />
<glyph unicode="&#xaa;" horiz-adv-x="860" d="M53 780q0 132 98.5 201.5t264.5 69.5q116 0 235 -29v149q0 108 -53.5 149.5t-167.5 41.5q-71 0 -123.5 -12t-75 -27t-43.5 -27t-38 -12t-28 11t-11 30v2q0 28 34 47q115 68 299 68q144 0 224 -59.5t80 -202.5v-611q0 -49 -46 -49h-2q-25 0 -37 16t-12 54v61 q-119 -131 -305 -131q-133 0 -213 65.5t-80 194.5zM150 786q0 -192 208 -192q100 0 167 37t126 108v215q-146 25 -221 25q-280 0 -280 -193z" />
<glyph unicode="&#xab;" horiz-adv-x="872" d="M53 530v5q0 20 23 49l293 360q23 33 47 33h2q29 0 41 -25t-8 -53l-287 -364v-5l287 -364q20 -28 8 -53t-41 -25h-2q-24 0 -47 33l-293 360q-23 29 -23 49zM395 530v5q0 20 23 49l293 360q23 33 47 33h2q29 0 41 -25t-8 -53l-287 -364v-5l287 -364q20 -28 8 -53t-41 -25 h-2q-24 0 -47 33l-293 360q-23 29 -23 49z" />
<glyph unicode="&#xad;" horiz-adv-x="462" d="M43 608v4q0 18 11 30.5t32 12.5h291q21 0 32 -12.5t11 -30.5v-4q0 -18 -11 -30.5t-32 -12.5h-291q-21 0 -32 12.5t-11 30.5z" />
<glyph unicode="&#xae;" horiz-adv-x="872" d="M63 1083q0 162 105.5 264.5t267.5 102.5t267.5 -102.5t105.5 -264.5t-105.5 -264t-267.5 -102q-163 0 -268 102t-105 264zM129 1083q0 -137 85.5 -222t221.5 -85t221.5 85t85.5 222t-85.5 222.5t-221.5 85.5t-221.5 -85.5t-85.5 -222.5zM297 926v309q0 26 15 39.5 t38 13.5h101q145 0 145 -119q0 -80 -74 -108l72 -115q12 -23 1 -41t-32 -18h-2q-21 0 -39 28l-78 134h-67v-123q0 -39 -37 -39h-4q-39 0 -39 39zM377 1104h67q74 0 74 65q0 62 -74 62h-67v-127z" />
<glyph unicode="&#xaf;" horiz-adv-x="843" d="M188 1288v4q0 35 37 35h396q34 0 34 -35v-4q0 -37 -34 -37h-396q-37 0 -37 37z" />
<glyph unicode="&#xb0;" horiz-adv-x="647" d="M66 1186q0 117 75 188.5t183 71.5q109 0 183.5 -71.5t74.5 -188.5q0 -114 -75 -186t-183 -72q-107 0 -182.5 72t-75.5 186zM150 1186q0 -80 50.5 -131t123.5 -51q75 0 124.5 50.5t49.5 131.5q0 83 -49.5 133.5t-124.5 50.5q-74 0 -124 -50.5t-50 -133.5z" />
<glyph unicode="&#xb2;" horiz-adv-x="583" d="M35 709v2q0 24 9.5 37.5t43.5 44.5l184 168q96 90 134 145t38 117q0 67 -40 105t-115 38q-44 0 -77 -12t-49 -27t-33.5 -27t-33.5 -12q-15 0 -26 11t-11 26v2q0 23 27 45q86 68 213 68q110 0 177 -57t67 -152q0 -79 -49 -148t-160 -170l-180 -165h360q37 0 37 -37v-4 q0 -37 -37 -37h-442q-37 0 -37 39z" />
<glyph unicode="&#xb3;" horiz-adv-x="565" d="M16 766v2q0 15 10 25t25 10q12 0 28 -10.5t32.5 -22.5t53 -22.5t83.5 -10.5q89 0 137.5 41t48.5 115q0 72 -52 105.5t-128 33.5h-51q-33 0 -33 33v4q0 13 8.5 22t24.5 9h45q77 0 123.5 35.5t46.5 101.5q0 63 -41 96t-119 33q-41 0 -73.5 -9.5t-48.5 -21t-32.5 -21 t-27.5 -9.5q-15 0 -25 10t-10 24v2q0 23 25 41q86 58 202 58q110 0 175 -50.5t65 -144.5q0 -126 -133 -172v-4q151 -38 151 -182q0 -106 -73.5 -164.5t-200.5 -58.5q-62 0 -118.5 16t-90.5 43q-27 19 -27 43z" />
<glyph unicode="&#xb4;" horiz-adv-x="843" d="M381 1184q-9 19 6 41l123 180q29 45 61 45h2q32 0 43.5 -29t-14.5 -61l-151 -174q-18 -21 -35 -21h-2q-24 0 -33 19z" />
<glyph unicode="&#xb6;" horiz-adv-x="1118" d="M68 1063q0 88 25 154t67 107t106 66t134 34.5t159 9.5h334q23 0 38 -14.5t15 -39.5v-1530q0 -22 -12.5 -33.5t-32.5 -11.5h-4q-20 0 -32.5 11.5t-12.5 33.5v1493h-178v-1493q0 -22 -12.5 -33.5t-32.5 -11.5h-4q-20 0 -32.5 11.5t-12.5 33.5v842h-33q-85 0 -154 10.5 t-131 36.5t-103.5 67.5t-66 106.5t-24.5 150z" />
<glyph unicode="&#xb7;" horiz-adv-x="290" d="M68 639q0 33 22 56.5t55 23.5q32 0 56 -24t24 -56q0 -33 -23.5 -55.5t-56.5 -22.5q-34 0 -55.5 22t-21.5 56z" />
<glyph unicode="&#xb8;" horiz-adv-x="843" d="M264 -287q0 14 9 24.5t22 10.5q11 0 40 -15.5t68 -15.5q40 0 64.5 16.5t24.5 47.5q0 69 -103 69h-16q-31 0 -31 29v121h76v-82q77 -3 119.5 -39t42.5 -100q0 -63 -48.5 -99t-121.5 -36t-121 28q-25 16 -25 39v2z" />
<glyph unicode="&#xb9;" horiz-adv-x="438" d="M14 1280v2q0 22 31 39l172 96q31 17 49 17h2q45 0 45 -45v-680q0 -23 -13.5 -35t-33.5 -12h-2q-20 0 -33.5 12t-13.5 35v622l-139 -78q-17 -10 -31 -10t-23.5 11.5t-9.5 25.5z" />
<glyph unicode="&#xba;" horiz-adv-x="991" d="M66 981q0 213 121 337t309 124q189 0 309.5 -124t120.5 -337q0 -216 -120 -338.5t-310 -122.5q-189 0 -309.5 123t-120.5 338zM166 981q0 -185 88.5 -283t241.5 -98t241 98t88 283q0 182 -88.5 282.5t-240.5 100.5t-241 -100.5t-89 -282.5z" />
<glyph unicode="&#xbb;" horiz-adv-x="872" d="M72 113q-12 25 8 53l287 364v5l-287 364q-20 28 -8 53t41 25h2q24 0 47 -33l293 -360q22 -28 22 -49v-5q0 -22 -22 -49l-293 -360q-23 -33 -47 -33h-2q-29 0 -41 25zM414 113q-12 25 8 53l287 364v5l-287 364q-20 28 -8 53t41 25h2q24 0 47 -33l293 -360q22 -28 22 -49 v-5q0 -22 -22 -49l-293 -360q-23 -33 -47 -33h-2q-29 0 -41 25z" />
<glyph unicode="&#xbc;" horiz-adv-x="1337" d="M12 1280v2q0 22 31 39l172 96q31 17 49 17h2q45 0 45 -45v-680q0 -23 -13.5 -35t-33.5 -12h-2q-20 0 -33.5 12t-13.5 35v622l-139 -78q-18 -10 -31 -10q-14 0 -23.5 11.5t-9.5 25.5zM105 -56.5q-10 21.5 8 50.5l962 1472q21 35 45 35h2q26 0 36 -21t-7 -50l-963 -1473 q-21 -35 -45 -35h-2q-26 0 -36 21.5zM705 229v2q0 22 6 35t28 39l336 426q26 33 66 33h6q18 0 30.5 -11.5t12.5 -31.5v-463h84q33 0 33 -33v-4q0 -33 -33 -33h-84v-153q0 -20 -12.5 -31.5t-30.5 -11.5h-4q-18 0 -30.5 11.5t-12.5 31.5v153h-357q-38 0 -38 41zM791 258h309 v383h-2l-307 -379v-4z" />
<glyph unicode="&#xbd;" horiz-adv-x="1404" d="M12 1280v2q0 22 31 39l172 96q31 17 49 17h2q45 0 45 -45v-680q0 -23 -13.5 -35t-33.5 -12h-2q-20 0 -33.5 12t-13.5 35v622l-139 -78q-18 -10 -31 -10q-14 0 -23.5 11.5t-9.5 25.5zM105 -56.5q-10 21.5 8 50.5l962 1472q21 35 45 35h2q26 0 36 -21t-7 -50l-963 -1473 q-21 -35 -45 -35h-2q-26 0 -36 21.5zM856 39v2q0 24 9.5 37.5t43.5 44.5l185 168q96 90 134 145t38 117q0 67 -40.5 105t-115.5 38q-44 0 -77 -12t-48.5 -27t-33 -27t-33.5 -12q-15 0 -26 11t-11 26v2q0 24 26 45q86 68 213 68q110 0 177 -57t67 -152q0 -79 -48.5 -147 t-160.5 -170l-180 -166h360q37 0 37 -37v-4q0 -37 -37 -37h-442q-37 0 -37 39z" />
<glyph unicode="&#xbe;" horiz-adv-x="1409" d="M16 766v2q0 15 10 25t25 10q12 0 28 -10.5t32.5 -22.5t53 -22.5t83.5 -10.5q89 0 137.5 41t48.5 115q0 72 -52 105.5t-128 33.5h-51q-33 0 -33 33v4q0 13 8.5 22t24.5 9h45q77 0 123.5 35.5t46.5 101.5q0 63 -41 96t-119 33q-41 0 -73.5 -9.5t-48.5 -21t-32.5 -21 t-27.5 -9.5q-15 0 -25 10t-10 24v2q0 23 25 41q86 58 202 58q110 0 175 -50.5t65 -144.5q0 -126 -133 -172v-4q151 -38 151 -182q0 -106 -73.5 -164.5t-200.5 -58.5q-62 0 -118.5 16t-90.5 43q-27 19 -27 43zM212 -56.5q-10 21.5 7 50.5l963 1472q21 35 45 35h2 q26 0 35.5 -21t-7.5 -50l-962 -1473q-21 -35 -45 -35h-2q-26 0 -36 21.5zM774 229v2q0 22 6.5 34.5t28.5 39.5l336 426q26 33 65 33h7q18 0 30.5 -11.5t12.5 -31.5v-463h83q33 0 33 -33v-4q0 -33 -33 -33h-83v-153q0 -20 -12.5 -31.5t-30.5 -11.5h-5q-18 0 -30.5 11.5 t-12.5 31.5v153h-356q-39 0 -39 41zM860 258h309v383h-2l-307 -379v-4z" />
<glyph unicode="&#xbf;" horiz-adv-x="876" d="M68 162q0 35 6.5 68t16 59t27.5 55.5t33 49.5t41.5 48.5t44 45.5t50 48t49.5 48q41 40 61 61t44.5 55t37.5 68q21 55 21 178q0 21 12.5 32t28.5 11h4q40 0 43 -43q7 -97 -11.5 -167t-55.5 -122.5t-115 -132.5q-10 -10 -49.5 -48t-54.5 -54t-45 -53.5t-43 -64.5 t-24.5 -66.5t-11.5 -79.5q0 -113 68 -174.5t196 -61.5q66 0 117.5 12.5t80.5 30t50.5 34.5t39.5 29.5t36 12.5t29.5 -13t11.5 -34v-2q0 -39 -55 -74q-131 -82 -312 -82q-175 0 -273.5 83t-98.5 243zM453 1208q0 33 23 55.5t56 22.5q34 0 56 -22t22 -56q0 -33 -22.5 -56.5 t-55.5 -23.5q-32 0 -55.5 24t-23.5 56z" />
<glyph unicode="&#xc0;" horiz-adv-x="1249" d="M69 14q-12 20 1 60l473 1302q22 58 80 58h10q58 0 80 -58l467 -1302q14 -38 -1.5 -59t-43.5 -21h-2q-39 0 -56 51l-145 404h-621l-141 -398q-19 -57 -57 -57h-2q-30 0 -42 20zM344 539h557l-276 774h-4zM465 1709.5q12 27.5 45 27.5h2q27 0 47 -33l90 -143 q19 -31 12 -50.5t-30 -19.5h-2q-18 0 -41 27l-111 133q-24 31 -12 58.5z" />
<glyph unicode="&#xc1;" horiz-adv-x="1249" d="M69 14q-12 20 1 60l473 1302q22 58 80 58h10q58 0 80 -58l467 -1302q14 -38 -1.5 -59t-43.5 -21h-2q-39 0 -56 51l-145 404h-621l-141 -398q-19 -57 -57 -57h-2q-30 0 -42 20zM344 539h557l-276 774h-4zM594.5 1510.5q-7.5 19.5 11.5 50.5l90 143q20 33 47 33h2 q33 0 45 -27.5t-12 -58.5l-110 -133q-23 -27 -41 -27h-2q-23 0 -30.5 19.5z" />
<glyph unicode="&#xc2;" horiz-adv-x="1249" d="M69 14q-12 20 1 60l473 1302q22 58 80 58h10q58 0 80 -58l467 -1302q14 -38 -1.5 -59t-43.5 -21h-2q-39 0 -56 51l-145 404h-621l-141 -398q-19 -57 -57 -57h-2q-30 0 -42 20zM344 539h557l-276 774h-4zM414.5 1513q-7.5 20 13.5 43l127 138q28 32 63 32h9q35 0 63 -32 l129 -138q21 -23 13.5 -43t-29.5 -20h-2q-15 0 -37 18l-141 129l-140 -129q-22 -18 -37 -18h-2q-22 0 -29.5 20z" />
<glyph unicode="&#xc3;" horiz-adv-x="1249" d="M69 14q-12 20 1 60l473 1302q22 58 80 58h10q58 0 80 -58l467 -1302q14 -38 -1.5 -59t-43.5 -21h-2q-39 0 -56 51l-145 404h-621l-141 -398q-19 -57 -57 -57h-2q-30 0 -42 20zM344 539h557l-276 774h-4zM367 1569q12 51 51.5 82.5t93.5 31.5q49 0 120 -39.5t97 -39.5 q54 0 76 55q0 1 1 3q14 30 30 35l10 1h2q22 0 29.5 -18.5t1.5 -45.5q-12 -51 -51 -83.5t-93 -32.5q-39 0 -81.5 20t-77.5 40.5t-58 20.5q-56 0 -78 -55q0 -1 -1 -3q-14 -30 -30 -35q-5 -1 -10 -1h-2q-22 0 -29 18.5t-1 45.5z" />
<glyph unicode="&#xc4;" horiz-adv-x="1249" d="M69 14q-12 20 1 60l473 1302q22 58 80 58h10q58 0 80 -58l467 -1302q14 -38 -1.5 -59t-43.5 -21h-2q-39 0 -56 51l-145 404h-621l-141 -398q-19 -57 -57 -57h-2q-30 0 -42 20zM344 539h557l-276 774h-4zM410 1583q0 28 20 49t49 21t49.5 -21t20.5 -49q0 -29 -20.5 -49.5 t-49.5 -20.5t-49 20.5t-20 49.5zM705 1583q0 28 20 49t47 21q29 0 49.5 -21t20.5 -49q0 -29 -20.5 -49.5t-49.5 -20.5q-28 0 -47.5 20.5t-19.5 49.5z" />
<glyph unicode="&#xc5;" horiz-adv-x="1249" d="M69 14q-12 20 1 60l473 1302q22 58 80 58h10q58 0 80 -58l467 -1302q14 -38 -1.5 -59t-43.5 -21h-2q-39 0 -56 51l-145 404h-621l-141 -398q-19 -57 -57 -57h-2q-30 0 -42 20zM344 539h557l-276 774h-4zM446 1679q0 77 54 126.5t127 49.5q72 0 125 -49.5t53 -126.5 q0 -79 -52.5 -126.5t-125.5 -47.5q-74 0 -127.5 47.5t-53.5 126.5zM522 1679q0 -48 30 -77t75 -29q44 0 74 29t30 77q0 47 -30.5 78t-73.5 31q-45 0 -75 -31t-30 -78z" />
<glyph unicode="&#xc6;" horiz-adv-x="1884" d="M45 17.5q-12 25.5 6 60.5l694 1308q23 48 78 48h928q18 0 30.5 -11t12.5 -32v-5q0 -22 -12 -33.5t-31 -11.5h-709v-557h527q18 0 30.5 -11t12.5 -32v-4q0 -21 -12.5 -32t-30.5 -11h-527v-604h738q18 0 30.5 -11t12.5 -32v-4q0 -21 -12.5 -32t-30.5 -11h-795 q-23 0 -38 13.5t-15 39.5v398h-572l-221 -422q-19 -37 -49 -37h-2q-31 0 -43 25.5zM408 541h524v800h-105z" />
<glyph unicode="&#xc7;" horiz-adv-x="1257" d="M100 721q0 172 50.5 310.5t137 227.5t200 136t243.5 47q236 0 381 -103q55 -39 55 -75v-2q0 -22 -13.5 -35t-33.5 -13q-19 0 -40.5 14.5t-48 35t-62 41t-96 35t-136.5 14.5q-112 0 -207 -40.5t-166 -118t-111 -198t-40 -272.5q0 -311 136 -478t372 -167q87 0 157.5 17.5 t111.5 42t70.5 49t50 42t34.5 17.5q20 0 33.5 -12.5t13.5 -32.5v-2q0 -35 -55 -78q-166 -131 -418 -131h-19v-74q77 -3 119.5 -39t42.5 -100q0 -63 -48.5 -99t-121.5 -36t-121 28q-24 15 -24 39v2q0 14 9 24.5t22 10.5q11 0 40 -15.5t68 -15.5q40 0 64 16.5t24 47.5 q0 69 -102 69h-17q-30 0 -30 29v119q-241 32 -383 220t-142 503z" />
<glyph unicode="&#xc8;" d="M174 53v1327q0 26 15 40t38 14h764q18 0 30.5 -11t12.5 -32v-5q0 -22 -12 -33.5t-31 -11.5h-708v-557h526q18 0 30.5 -11t12.5 -32v-4q0 -21 -12.5 -32t-30.5 -11h-526v-604h737q18 0 30.5 -11t12.5 -32v-4q0 -21 -12.5 -32t-30.5 -11h-793q-23 0 -38 13.5t-15 39.5z M457 1709.5q12 27.5 45 27.5h2q27 0 47 -33l90 -143q19 -31 12 -50.5t-30 -19.5h-2q-18 0 -41 27l-111 133q-24 31 -12 58.5z" />
<glyph unicode="&#xc9;" d="M174 53v1327q0 26 15 40t38 14h764q18 0 30.5 -11t12.5 -32v-5q0 -22 -12 -33.5t-31 -11.5h-708v-557h526q18 0 30.5 -11t12.5 -32v-4q0 -21 -12.5 -32t-30.5 -11h-526v-604h737q18 0 30.5 -11t12.5 -32v-4q0 -21 -12.5 -32t-30.5 -11h-793q-23 0 -38 13.5t-15 39.5z M584 1510.5q-7 19.5 12 50.5l90 143q20 33 47 33h2q33 0 45 -27.5t-12 -58.5l-111 -133q-23 -27 -41 -27h-2q-23 0 -30 19.5z" />
<glyph unicode="&#xca;" d="M174 53v1327q0 26 15 40t38 14h764q18 0 30.5 -11t12.5 -32v-5q0 -22 -12 -33.5t-31 -11.5h-708v-557h526q18 0 30.5 -11t12.5 -32v-4q0 -21 -12.5 -32t-30.5 -11h-526v-604h737q18 0 30.5 -11t12.5 -32v-4q0 -21 -12.5 -32t-30.5 -11h-793q-23 0 -38 13.5t-15 39.5z M404.5 1513q-7.5 20 13.5 43l127 138q28 32 63 32h8q36 0 64 -32l129 -138q21 -23 13.5 -43t-29.5 -20h-2q-15 0 -37 18l-142 129l-139 -129q-22 -18 -37 -18h-2q-22 0 -29.5 20z" />
<glyph unicode="&#xcb;" d="M174 53v1327q0 26 15 40t38 14h764q18 0 30.5 -11t12.5 -32v-5q0 -22 -12 -33.5t-31 -11.5h-708v-557h526q18 0 30.5 -11t12.5 -32v-4q0 -21 -12.5 -32t-30.5 -11h-526v-604h737q18 0 30.5 -11t12.5 -32v-4q0 -21 -12.5 -32t-30.5 -11h-793q-23 0 -38 13.5t-15 39.5z M399 1583q0 28 20.5 49t49.5 21t49.5 -21t20.5 -49q0 -29 -20.5 -49.5t-49.5 -20.5t-49.5 20.5t-20.5 49.5zM694 1583q0 28 20 49t48 21q29 0 49 -21t20 -49q0 -29 -20 -49.5t-49 -20.5q-28 0 -48 20.5t-20 49.5z" />
<glyph unicode="&#xcc;" horiz-adv-x="466" d="M74 1709.5q12 27.5 45 27.5h2q27 0 47 -33l90 -143q19 -31 12 -50.5t-30 -19.5h-2q-18 0 -41 27l-111 133q-24 31 -12 58.5zM178 47v1339q0 26 15 40t38 14h5q23 0 38 -14t15 -40v-1339q0 -26 -15 -39.5t-38 -13.5h-5q-23 0 -38 13.5t-15 39.5z" />
<glyph unicode="&#xcd;" horiz-adv-x="466" d="M178 47v1339q0 26 15 40t38 14h5q23 0 38 -14t15 -40v-1339q0 -26 -15 -39.5t-38 -13.5h-5q-23 0 -38 13.5t-15 39.5zM203 1510.5q-7 19.5 12 50.5l90 143q20 33 47 33h2q33 0 45 -27.5t-12 -58.5l-111 -133q-23 -27 -40 -27h-3q-23 0 -30 19.5z" />
<glyph unicode="&#xce;" horiz-adv-x="466" d="M23.5 1513q-7.5 20 13.5 43l127 138q28 32 63 32h9q35 0 63 -32l129 -138q21 -23 13.5 -43t-29.5 -20h-2q-15 0 -37 18l-142 129l-139 -129q-22 -18 -37 -18h-2q-22 0 -29.5 20zM178 47v1339q0 26 15 40t38 14h5q23 0 38 -14t15 -40v-1339q0 -26 -15 -39.5t-38 -13.5h-5 q-23 0 -38 13.5t-15 39.5z" />
<glyph unicode="&#xcf;" horiz-adv-x="466" d="M18 1583q0 28 20.5 49t49.5 21t49.5 -21t20.5 -49q0 -29 -20.5 -49.5t-49.5 -20.5t-49.5 20.5t-20.5 49.5zM178 47v1339q0 26 15 40t38 14h5q23 0 38 -14t15 -40v-1339q0 -26 -15 -39.5t-38 -13.5h-5q-23 0 -38 13.5t-15 39.5zM313 1583q0 28 20 49t48 21q29 0 49.5 -21 t20.5 -49q0 -29 -20.5 -49.5t-49.5 -20.5q-28 0 -48 20.5t-20 49.5z" />
<glyph unicode="&#xd0;" horiz-adv-x="1361" d="M18 717v4q0 43 43 43h113v616q0 26 15 40t38 14h330q363 0 542 -170t179 -545q0 -374 -180 -546.5t-543 -172.5h-328q-23 0 -38 13.5t-15 39.5v621h-113q-43 0 -43 43zM283 90h272q316 0 463 146t147 481q0 334 -147 480t-463 146h-272v-579h397q43 0 43 -43v-4 q0 -43 -43 -43h-397v-584z" />
<glyph unicode="&#xd1;" horiz-adv-x="1384" d="M174 45v1333q0 27 15 41.5t38 14.5h33q29 0 46 -12t36 -40l764 -1185h2v1192q0 25 14 38t37 13h2q23 0 37 -13t14 -38v-1338q0 -55 -53 -55h-6q-27 0 -42 11t-34 40l-796 1241h-5v-1243q0 -25 -14 -38t-37 -13h-2q-22 0 -35.5 13t-13.5 38zM455 1569q12 51 51.5 82.5 t93.5 31.5q49 0 120 -39.5t97 -39.5q54 0 76 55q0 1 1 3q14 30 30 35l10 1h2q22 0 29.5 -18.5t1.5 -45.5q-12 -51 -51 -83.5t-93 -32.5q-39 0 -81.5 20t-77.5 40.5t-58 20.5q-56 0 -78 -55q0 -1 -1 -3q-14 -30 -30 -35q-5 -1 -10 -1h-2q-22 0 -29 18.5t-1 45.5z" />
<glyph unicode="&#xd2;" horiz-adv-x="1454" d="M84 717q0 138 33 255.5t92.5 203t140.5 146t177 90.5t202 30q105 0 200.5 -30t175.5 -90.5t139.5 -146t92.5 -203.5t33 -255q0 -172 -51 -311.5t-139 -228.5t-203.5 -137t-247.5 -48q-133 0 -249.5 48t-205 137.5t-139.5 228.5t-51 311zM197 715q0 -154 40.5 -276 t112.5 -200.5t168.5 -119.5t210.5 -41q112 0 208 41t167.5 119.5t112 200.5t40.5 276t-40.5 277t-112 202t-167.5 120.5t-208 41.5q-114 0 -210.5 -41.5t-168.5 -120.5t-112.5 -202t-40.5 -277zM565.5 1709.5q11.5 27.5 44.5 27.5h2q27 0 47 -33l91 -143q19 -31 11.5 -50.5 t-30.5 -19.5h-2q-18 0 -41 27l-110 133q-24 31 -12.5 58.5z" />
<glyph unicode="&#xd3;" horiz-adv-x="1454" d="M84 717q0 138 33 255.5t92.5 203t140.5 146t177 90.5t202 30q105 0 200.5 -30t175.5 -90.5t139.5 -146t92.5 -203.5t33 -255q0 -172 -51 -311.5t-139 -228.5t-203.5 -137t-247.5 -48q-133 0 -249.5 48t-205 137.5t-139.5 228.5t-51 311zM197 715q0 -154 40.5 -276 t112.5 -200.5t168.5 -119.5t210.5 -41q112 0 208 41t167.5 119.5t112 200.5t40.5 276t-40.5 277t-112 202t-167.5 120.5t-208 41.5q-114 0 -210.5 -41.5t-168.5 -120.5t-112.5 -202t-40.5 -277zM695 1510.5q-7 19.5 12 50.5l90 143q20 33 47 33h2q33 0 45 -27.5t-12 -58.5 l-111 -133q-23 -27 -41 -27h-2q-23 0 -30 19.5z" />
<glyph unicode="&#xd4;" horiz-adv-x="1454" d="M84 717q0 138 33 255.5t92.5 203t140.5 146t177 90.5t202 30q105 0 200.5 -30t175.5 -90.5t139.5 -146t92.5 -203.5t33 -255q0 -172 -51 -311.5t-139 -228.5t-203.5 -137t-247.5 -48q-133 0 -249.5 48t-205 137.5t-139.5 228.5t-51 311zM197 715q0 -154 40.5 -276 t112.5 -200.5t168.5 -119.5t210.5 -41q112 0 208 41t167.5 119.5t112 200.5t40.5 276t-40.5 277t-112 202t-167.5 120.5t-208 41.5q-114 0 -210.5 -41.5t-168.5 -120.5t-112.5 -202t-40.5 -277zM515 1513q-8 20 13 43l127 138q28 32 64 32h8q36 0 64 -32l129 -138 q21 -23 13 -43t-30 -20h-2q-15 0 -37 18l-141 129l-139 -129q-22 -18 -37 -18h-2q-22 0 -30 20z" />
<glyph unicode="&#xd5;" horiz-adv-x="1454" d="M84 717q0 138 33 255.5t92.5 203t140.5 146t177 90.5t202 30q105 0 200.5 -30t175.5 -90.5t139.5 -146t92.5 -203.5t33 -255q0 -172 -51 -311.5t-139 -228.5t-203.5 -137t-247.5 -48q-133 0 -249.5 48t-205 137.5t-139.5 228.5t-51 311zM197 715q0 -154 40.5 -276 t112.5 -200.5t168.5 -119.5t210.5 -41q112 0 208 41t167.5 119.5t112 200.5t40.5 276t-40.5 277t-112 202t-167.5 120.5t-208 41.5q-114 0 -210.5 -41.5t-168.5 -120.5t-112.5 -202t-40.5 -277zM467 1569q12 51 51.5 82.5t93.5 31.5q49 0 120 -39.5t97 -39.5q54 0 76 55 q0 1 1 3q14 30 30 35l10 1h2q22 0 29.5 -18.5t1.5 -45.5q-12 -51 -50.5 -83.5t-92.5 -32.5q-39 0 -81.5 20t-78 40.5t-58.5 20.5q-55 0 -77 -55q-14 -31 -28 -37q-6 -2 -13 -2h-2q-22 0 -29.5 18.5t-1.5 45.5z" />
<glyph unicode="&#xd6;" horiz-adv-x="1454" d="M84 717q0 138 33 255.5t92.5 203t140.5 146t177 90.5t202 30q105 0 200.5 -30t175.5 -90.5t139.5 -146t92.5 -203.5t33 -255q0 -172 -51 -311.5t-139 -228.5t-203.5 -137t-247.5 -48q-133 0 -249.5 48t-205 137.5t-139.5 228.5t-51 311zM197 715q0 -154 40.5 -276 t112.5 -200.5t168.5 -119.5t210.5 -41q112 0 208 41t167.5 119.5t112 200.5t40.5 276t-40.5 277t-112 202t-167.5 120.5t-208 41.5q-114 0 -210.5 -41.5t-168.5 -120.5t-112.5 -202t-40.5 -277zM510 1583q0 28 20.5 49t49.5 21t49 -21t20 -49q0 -29 -20 -49.5t-49 -20.5 t-49.5 20.5t-20.5 49.5zM805 1583q0 28 20 49t47 21q29 0 49.5 -21t20.5 -49q0 -29 -20.5 -49.5t-49.5 -20.5q-28 0 -47.5 20.5t-19.5 49.5z" />
<glyph unicode="&#xd7;" horiz-adv-x="956" d="M119 354.5q-10 28.5 14 53.5l283 284l-283 287q-24 25 -14 53.5t41 28.5h2q18 0 37 -19l278 -280l279 280q19 19 37 19h2q32 0 42.5 -28.5t-14.5 -53.5l-284 -287l284 -284q25 -25 14.5 -53.5t-42.5 -28.5h-2q-19 0 -37 18l-279 281l-278 -281q-18 -18 -37 -18h-2 q-31 0 -41 28.5z" />
<glyph unicode="&#xd8;" horiz-adv-x="1454" d="M84 717q0 138 33 255.5t92.5 203t140.5 146t177 90.5t202 30q231 0 399 -139l113 145q24 33 45 33h2q27 0 37.5 -21.5t-10.5 -52.5l-125 -164q180 -199 180 -526q0 -172 -51 -311.5t-139 -228.5t-203.5 -137t-247.5 -48q-229 0 -397 133l-119 -156q-23 -32 -45 -32h-2 q-27 0 -37.5 21t10.5 52l131 172q-186 196 -186 535zM197 715q0 -285 135 -455l739 967q-135 129 -342 129q-114 0 -210.5 -41.5t-168.5 -120.5t-112.5 -202t-40.5 -277zM389 199q139 -121 340 -121q112 0 208 41t167.5 119.5t112 200.5t40.5 276q0 277 -129 448z" />
<glyph unicode="&#xd9;" horiz-adv-x="1376" d="M164 485v901q0 26 15 40t38 14h2q23 0 38 -14t15 -40v-905q0 -111 33.5 -191t94 -124t134.5 -64t166 -20q71 0 129 11t111 39.5t89.5 73t57.5 114.5t21 161v908q0 25 14 38t37 13h4q23 0 37 -13t14 -38v-904q0 -131 -39 -228t-110.5 -154t-163.5 -84t-207 -27 q-114 0 -207 27t-167 83.5t-115 153.5t-41 229zM528.5 1709.5q11.5 27.5 44.5 27.5h2q28 0 48 -33l90 -143q19 -31 11.5 -50.5t-30.5 -19.5h-2q-18 0 -41 27l-110 133q-24 31 -12.5 58.5z" />
<glyph unicode="&#xda;" horiz-adv-x="1376" d="M164 485v901q0 26 15 40t38 14h2q23 0 38 -14t15 -40v-905q0 -111 33.5 -191t94 -124t134.5 -64t166 -20q71 0 129 11t111 39.5t89.5 73t57.5 114.5t21 161v908q0 25 14 38t37 13h4q23 0 37 -13t14 -38v-904q0 -131 -39 -228t-110.5 -154t-163.5 -84t-207 -27 q-114 0 -207 27t-167 83.5t-115 153.5t-41 229zM660 1510.5q-7 19.5 12 50.5l90 143q20 33 47 33h2q33 0 45 -27.5t-12 -58.5l-111 -133q-23 -27 -41 -27h-2q-23 0 -30 19.5z" />
<glyph unicode="&#xdb;" horiz-adv-x="1376" d="M164 485v901q0 26 15 40t38 14h2q23 0 38 -14t15 -40v-905q0 -111 33.5 -191t94 -124t134.5 -64t166 -20q71 0 129 11t111 39.5t89.5 73t57.5 114.5t21 161v908q0 25 14 38t37 13h4q23 0 37 -13t14 -38v-904q0 -131 -39 -228t-110.5 -154t-163.5 -84t-207 -27 q-114 0 -207 27t-167 83.5t-115 153.5t-41 229zM478.5 1513q-7.5 20 13.5 43l126 138q28 32 64 32h8q36 0 64 -32l129 -138q21 -23 13 -43t-30 -20h-2q-15 0 -37 18l-141 129l-139 -129q-22 -18 -37 -18h-2q-22 0 -29.5 20z" />
<glyph unicode="&#xdc;" horiz-adv-x="1376" d="M164 485v901q0 26 15 40t38 14h2q23 0 38 -14t15 -40v-905q0 -111 33.5 -191t94 -124t134.5 -64t166 -20q71 0 129 11t111 39.5t89.5 73t57.5 114.5t21 161v908q0 25 14 38t37 13h4q23 0 37 -13t14 -38v-904q0 -131 -39 -228t-110.5 -154t-163.5 -84t-207 -27 q-114 0 -207 27t-167 83.5t-115 153.5t-41 229zM473 1583q0 28 20.5 49t49.5 21t49 -21t20 -49q0 -29 -20 -49.5t-49 -20.5t-49.5 20.5t-20.5 49.5zM768 1583q0 28 20 49t48 21q29 0 49 -21t20 -49q0 -29 -20 -49.5t-49 -20.5q-28 0 -48 20.5t-20 49.5z" />
<glyph unicode="&#xdd;" horiz-adv-x="1122" d="M64.5 1415q13.5 25 44.5 25h2q31 0 51 -39l401 -699h4l404 703q21 35 47 35h2q29 0 43 -21.5t-2 -52.5l-443 -762v-557q0 -26 -15 -39.5t-38 -13.5h-4q-23 0 -38 13.5t-15 39.5v553l-440 758q-17 32 -3.5 57zM535 1510.5q-7 19.5 12 50.5l90 143q20 33 47 33h2 q33 0 45 -27.5t-12 -58.5l-111 -133q-23 -27 -41 -27h-2q-23 0 -30 19.5z" />
<glyph unicode="&#xde;" horiz-adv-x="1126" d="M174 47v1342q0 25 15 38t38 13h2q23 0 38.5 -13t15.5 -38v-248h264q119 0 209.5 -21t159 -67t104 -124.5t35.5 -187.5q0 -217 -130.5 -314t-379.5 -97h-262v-283q0 -26 -15.5 -39.5t-38.5 -13.5h-2q-23 0 -38 13.5t-15 39.5zM283 418h262q203 0 301 72.5t98 248.5 q0 172 -100.5 241t-298.5 69h-262v-631z" />
<glyph unicode="&#xdf;" horiz-adv-x="1155" d="M145 41v973q0 209 125 319.5t334 110.5q162 0 261.5 -61t99.5 -189q0 -44 -18 -85.5t-54.5 -80t-70 -67t-85.5 -66.5q-73 -52 -103 -87t-30 -75q0 -43 42.5 -73.5t154.5 -71.5q57 -21 94 -37.5t77.5 -42.5t63.5 -55t38.5 -71t15.5 -95q0 -140 -96.5 -217.5t-260.5 -77.5 q-75 0 -141.5 16.5t-104.5 44.5q-30 21 -30 49v2q0 18 11.5 29.5t29.5 11.5q16 0 35.5 -11.5t38 -25t61 -25t100.5 -11.5q124 0 191 52.5t67 154.5q0 47 -14.5 80.5t-49 59.5t-72.5 43.5t-103 41.5q-129 48 -185.5 93t-56.5 124q0 65 36.5 112.5t119.5 114.5q104 80 133 111 q63 66 63 133q0 86 -71 129t-187 43q-168 0 -262 -93t-94 -261v-969q0 -24 -14 -36.5t-35 -12.5h-4q-22 0 -36 12.5t-14 36.5z" />
<glyph unicode="&#xe0;" horiz-adv-x="1005" d="M57 299q0 156 116 234.5t312 78.5q159 0 281 -32v192q0 225 -262 225q-85 0 -148 -15t-90 -33t-52 -33t-44 -15q-18 0 -30.5 11t-12.5 32v2q0 39 70 72q129 61 311 61q360 0 360 -301v-735q0 -49 -45 -49h-2q-29 0 -42 22t-13 78v51q-74 -77 -157.5 -116t-207.5 -39 q-154 0 -249 81t-95 228zM162 307q0 -121 69.5 -179t184.5 -58q82 0 149 24t110.5 59t90.5 91v262q-150 33 -274 33q-150 0 -240 -57.5t-90 -174.5zM307 1421q11 29 43 29h2q33 0 62 -45l123 -180q15 -22 6 -41t-33 -19h-2q-17 0 -35 21l-151 174q-26 32 -15 61z" />
<glyph unicode="&#xe1;" horiz-adv-x="1005" d="M57 299q0 156 116 234.5t312 78.5q159 0 281 -32v192q0 225 -262 225q-85 0 -148 -15t-90 -33t-52 -33t-44 -15q-18 0 -30.5 11t-12.5 32v2q0 39 70 72q129 61 311 61q360 0 360 -301v-735q0 -49 -45 -49h-2q-29 0 -42 22t-13 78v51q-74 -77 -157.5 -116t-207.5 -39 q-154 0 -249 81t-95 228zM162 307q0 -121 69.5 -179t184.5 -58q82 0 149 24t110.5 59t90.5 91v262q-150 33 -274 33q-150 0 -240 -57.5t-90 -174.5zM481 1186q-9 19 6 41l123 180q29 45 62 45h2q32 0 43 -29t-15 -61l-151 -174q-18 -21 -35 -21h-2q-24 0 -33 19z" />
<glyph unicode="&#xe2;" horiz-adv-x="1005" d="M57 299q0 156 116 234.5t312 78.5q159 0 281 -32v192q0 225 -262 225q-85 0 -148 -15t-90 -33t-52 -33t-44 -15q-18 0 -30.5 11t-12.5 32v2q0 39 70 72q129 61 311 61q360 0 360 -301v-735q0 -49 -45 -49h-2q-29 0 -42 22t-13 78v51q-74 -77 -157.5 -116t-207.5 -39 q-154 0 -249 81t-95 228zM162 307q0 -121 69.5 -179t184.5 -58q82 0 149 24t110.5 59t90.5 91v262q-150 33 -274 33q-150 0 -240 -57.5t-90 -174.5zM278 1184.5q-9 19.5 11 44.5l151 180q12 13 18.5 19t18.5 12t27 6h4q21 0 34.5 -8.5t28.5 -28.5l146 -180q18 -25 9.5 -44.5 t-30.5 -19.5h-2q-18 0 -37 23l-155 164l-154 -164q-19 -23 -37 -23h-2q-22 0 -31 19.5z" />
<glyph unicode="&#xe3;" horiz-adv-x="1005" d="M57 299q0 156 116 234.5t312 78.5q159 0 281 -32v192q0 225 -262 225q-85 0 -148 -15t-90 -33t-52 -33t-44 -15q-18 0 -30.5 11t-12.5 32v2q0 39 70 72q129 61 311 61q360 0 360 -301v-735q0 -49 -45 -49h-2q-29 0 -42 22t-13 78v51q-74 -77 -157.5 -116t-207.5 -39 q-154 0 -249 81t-95 228zM162 307q0 -121 69.5 -179t184.5 -58q82 0 149 24t110.5 59t90.5 91v262q-150 33 -274 33q-150 0 -240 -57.5t-90 -174.5zM252 1257q12 51 51.5 83t93.5 32q49 0 120 -40t97 -40q54 0 76 56q6 13 9 19t11.5 12.5t20.5 6.5h2q22 0 29.5 -18.5 t1.5 -44.5q-12 -51 -50.5 -84t-92.5 -33q-39 0 -81.5 20.5t-78 41t-58.5 20.5q-55 0 -77 -55q0 -1 -1 -3q-14 -30 -30 -35q-5 -1 -10 -1h-2q-22 0 -29.5 18.5t-1.5 44.5z" />
<glyph unicode="&#xe4;" horiz-adv-x="1005" d="M57 299q0 156 116 234.5t312 78.5q159 0 281 -32v192q0 225 -262 225q-85 0 -148 -15t-90 -33t-52 -33t-44 -15q-18 0 -30.5 11t-12.5 32v2q0 39 70 72q129 61 311 61q360 0 360 -301v-735q0 -49 -45 -49h-2q-29 0 -42 22t-13 78v51q-74 -77 -157.5 -116t-207.5 -39 q-154 0 -249 81t-95 228zM162 307q0 -121 69.5 -179t184.5 -58q82 0 149 24t110.5 59t90.5 91v262q-150 33 -274 33q-150 0 -240 -57.5t-90 -174.5zM293 1298q0 29 20 49.5t49 20.5t49.5 -20.5t20.5 -49.5q0 -28 -20.5 -47.5t-49.5 -19.5t-49 19.5t-20 47.5zM588 1298 q0 29 19.5 49.5t47.5 20.5q29 0 49.5 -20.5t20.5 -49.5q0 -28 -20.5 -47.5t-49.5 -19.5q-28 0 -47.5 19.5t-19.5 47.5z" />
<glyph unicode="&#xe5;" horiz-adv-x="1005" d="M57 299q0 156 116 234.5t312 78.5q159 0 281 -32v192q0 225 -262 225q-85 0 -148 -15t-90 -33t-52 -33t-44 -15q-18 0 -30.5 11t-12.5 32v2q0 39 70 72q129 61 311 61q360 0 360 -301v-735q0 -49 -45 -49h-2q-29 0 -42 22t-13 78v51q-74 -77 -157.5 -116t-207.5 -39 q-154 0 -249 81t-95 228zM162 307q0 -121 69.5 -179t184.5 -58q82 0 149 24t110.5 59t90.5 91v262q-150 33 -274 33q-150 0 -240 -57.5t-90 -174.5zM330 1350q0 77 53.5 126.5t126.5 49.5q72 0 125 -49.5t53 -126.5t-53 -125.5t-125 -48.5q-73 0 -126.5 48.5t-53.5 125.5z M406 1350q0 -47 29.5 -77t74.5 -30q44 0 74 30.5t30 76.5q0 49 -30 79.5t-74 30.5q-45 0 -74.5 -30.5t-29.5 -79.5z" />
<glyph unicode="&#xe6;" horiz-adv-x="1738" d="M57 301q0 152 116 230.5t312 78.5h281v162q0 225 -262 225q-85 0 -148 -15t-90 -33t-52 -33t-44 -15q-18 0 -30.5 11t-12.5 32v2q0 39 70 72q129 61 311 61q299 0 344 -215q64 102 164 158.5t223 56.5q205 0 321.5 -122.5t116.5 -374.5q0 -25 -13.5 -37.5t-35.5 -12.5 h-758v-2q0 -224 103 -339t303 -115q85 0 150 17t94 37t53.5 37t38.5 17q20 0 31.5 -10.5t11.5 -28.5v-2q0 -28 -39 -55q-139 -96 -350 -96q-152 0 -261.5 59.5t-170.5 171.5q-156 -233 -431 -233q-155 0 -250.5 81.5t-95.5 229.5zM162 307q0 -121 69.5 -179t184.5 -58 q130 0 222 58.5t163 168.5q-35 103 -35 233v2h-274q-153 0 -241.5 -55t-88.5 -170zM872 610h703q-8 391 -336 391q-152 0 -250.5 -100t-116.5 -291z" />
<glyph unicode="&#xe7;" horiz-adv-x="978" d="M66 537q0 250 139.5 396t365.5 146q181 0 287 -71q47 -32 47 -68v-2q0 -19 -12 -31t-31 -12q-17 0 -39.5 16t-47 35t-79 35t-127.5 16q-181 0 -290 -122.5t-109 -337.5q0 -219 105.5 -341t293.5 -122q64 0 115 12.5t80 30.5t50.5 35.5t38 30t30.5 12.5q20 0 30.5 -11.5 t10.5 -29.5v-2q0 -32 -35 -60q-121 -100 -324 -100h-33v-74q77 -3 119.5 -39t42.5 -100q0 -63 -48.5 -99t-121.5 -36t-121 28q-24 15 -24 39v2q0 14 9 24.5t22 10.5q11 0 40 -15.5t68 -15.5q40 0 64 16.5t24 47.5q0 69 -102 69h-17q-30 0 -30 29v121q-186 34 -288.5 175 t-102.5 362z" />
<glyph unicode="&#xe8;" horiz-adv-x="1038" d="M66 530q0 248 133 398.5t340 150.5q205 0 321.5 -123.5t116.5 -375.5q0 -25 -13.5 -37.5t-35.5 -12.5h-758q0 -224 102.5 -339t302.5 -115q85 0 150 17t94 37t53.5 37t38.5 17q20 0 31.5 -10.5t11.5 -28.5v-2q0 -28 -39 -55q-139 -96 -350 -96q-239 0 -369 143t-130 395z M172 608h702q-8 393 -335 393q-152 0 -250.5 -100.5t-116.5 -292.5zM333.5 1421q11.5 29 43.5 29h2q32 0 61 -45l123 -180q15 -22 6.5 -41t-32.5 -19h-2q-17 0 -35 21l-152 174q-26 32 -14.5 61z" />
<glyph unicode="&#xe9;" horiz-adv-x="1038" d="M66 530q0 248 133 398.5t340 150.5q205 0 321.5 -123.5t116.5 -375.5q0 -25 -13.5 -37.5t-35.5 -12.5h-758q0 -224 102.5 -339t302.5 -115q85 0 150 17t94 37t53.5 37t38.5 17q20 0 31.5 -10.5t11.5 -28.5v-2q0 -28 -39 -55q-139 -96 -350 -96q-239 0 -369 143t-130 395z M172 608h702q-8 393 -335 393q-152 0 -250.5 -100.5t-116.5 -292.5zM508 1184q-9 19 6 41l123 180q29 45 61 45h2q32 0 43.5 -29t-14.5 -61l-151 -174q-18 -21 -35 -21h-2q-24 0 -33 19z" />
<glyph unicode="&#xea;" horiz-adv-x="1038" d="M66 530q0 248 133 398.5t340 150.5q205 0 321.5 -123.5t116.5 -375.5q0 -25 -13.5 -37.5t-35.5 -12.5h-758q0 -224 102.5 -339t302.5 -115q85 0 150 17t94 37t53.5 37t38.5 17q20 0 31.5 -10.5t11.5 -28.5v-2q0 -28 -39 -55q-139 -96 -350 -96q-239 0 -369 143t-130 395z M172 608h702q-8 393 -335 393q-152 0 -250.5 -100.5t-116.5 -292.5zM311 1184.5q-9 19.5 11 44.5l151 180q12 13 18.5 19t18.5 12t27 6h4q21 0 34.5 -8.5t28.5 -28.5l146 -180q18 -25 9.5 -44.5t-30.5 -19.5h-2q-18 0 -37 23l-155 164l-154 -164q-19 -23 -37 -23h-2 q-22 0 -31 19.5z" />
<glyph unicode="&#xeb;" horiz-adv-x="1038" d="M66 530q0 248 133 398.5t340 150.5q205 0 321.5 -123.5t116.5 -375.5q0 -25 -13.5 -37.5t-35.5 -12.5h-758q0 -224 102.5 -339t302.5 -115q85 0 150 17t94 37t53.5 37t38.5 17q20 0 31.5 -10.5t11.5 -28.5v-2q0 -28 -39 -55q-139 -96 -350 -96q-239 0 -369 143t-130 395z M172 608h702q-8 393 -335 393q-152 0 -250.5 -100.5t-116.5 -292.5zM322 1298q0 29 20 49.5t49 20.5t49.5 -20.5t20.5 -49.5q0 -28 -20.5 -47.5t-49.5 -19.5t-49 19.5t-20 47.5zM616 1298q0 29 20 49.5t48 20.5q29 0 49.5 -20.5t20.5 -49.5q0 -28 -20.5 -47.5t-49.5 -19.5 q-28 0 -48 19.5t-20 47.5z" />
<glyph unicode="&#xec;" horiz-adv-x="403" d="M-0.5 1421q11.5 29 43.5 29h2q32 0 61 -45l123 -180q15 -22 6.5 -41t-32.5 -19h-2q-17 0 -35 21l-152 174q-26 32 -14.5 61zM150 43v981q0 49 45 49h2q29 0 42 -19.5t13 -74.5v-936q0 -49 -49 -49h-4q-49 0 -49 49z" />
<glyph unicode="&#xed;" horiz-adv-x="403" d="M150 43v981q0 49 45 49h2q29 0 42 -19.5t13 -74.5v-936q0 -49 -49 -49h-4q-49 0 -49 49zM170 1184q-9 19 6 41l123 180q29 45 61 45h2q32 0 43.5 -29t-14.5 -61l-151 -174q-18 -21 -35 -21h-2q-24 0 -33 19z" />
<glyph unicode="&#xee;" horiz-adv-x="403" d="M-25 1184.5q-9 19.5 11 44.5l151 180q12 13 18.5 19t18.5 12t27 6h4q21 0 34.5 -8.5t28.5 -28.5l146 -180q18 -25 9.5 -44.5t-30.5 -19.5h-2q-18 0 -37 23l-155 164l-154 -164q-19 -23 -37 -23h-2q-22 0 -31 19.5zM150 43v981q0 49 45 49h2q29 0 42 -19.5t13 -74.5v-936 q0 -49 -49 -49h-4q-49 0 -49 49z" />
<glyph unicode="&#xef;" horiz-adv-x="403" d="M-14 1298q0 29 20 49.5t49 20.5t49.5 -20.5t20.5 -49.5q0 -28 -20.5 -47.5t-49.5 -19.5t-49 19.5t-20 47.5zM150 43v981q0 49 45 49h2q29 0 42 -19.5t13 -74.5v-936q0 -49 -49 -49h-4q-49 0 -49 49zM281 1298q0 29 19.5 49.5t47.5 20.5q29 0 49.5 -20.5t20.5 -49.5 q0 -28 -20.5 -47.5t-49.5 -19.5q-28 0 -47.5 19.5t-19.5 47.5z" />
<glyph unicode="&#xf0;" horiz-adv-x="1122" d="M66 532q0 247 133 396t348 149q128 0 211 -44t153 -132q-109 232 -282 346l-172 -117q-12 -8 -23 -8h-2q-24 0 -31 23.5t15 38.5l149 102q-77 40 -182 66q-47 11 -47 43v2q0 37 41 37q13 0 33 -4q118 -29 233 -91l139 95q12 8 23 8h2q25 0 30.5 -25.5t-24.5 -42.5 l-108 -74q166 -112 260 -299t94 -444q0 -274 -136.5 -419.5t-361.5 -145.5q-224 0 -359.5 146t-135.5 394zM170 532q0 -214 104.5 -337t290.5 -123q183 0 286 121.5t103 338.5q0 213 -103 339t-286 126q-185 0 -290 -124.5t-105 -340.5z" />
<glyph unicode="&#xf1;" horiz-adv-x="1128" d="M145 43v981q0 49 45 49h3q29 0 42 -19.5t13 -74.5v-82q229 182 469 182q276 0 276 -284v-752q0 -49 -49 -49h-4q-49 0 -49 49v739q0 119 -56 165t-157 46q-193 0 -430 -180v-770q0 -49 -49 -49h-4q-50 0 -50 49zM319 1257q12 51 52 83t94 32q49 0 120 -40t97 -40 q54 0 76 56q6 13 9 19t11.5 12.5t20.5 6.5h2q22 0 29 -18t1 -45q-12 -51 -50.5 -84t-92.5 -33q-39 0 -81.5 20.5t-77.5 41t-58 20.5q-56 0 -78 -55q0 -1 -1 -3q-14 -30 -30 -35q-5 -1 -10 -1h-2q-22 0 -29.5 18.5t-1.5 44.5z" />
<glyph unicode="&#xf2;" d="M66 535q0 250 136 397t359 147q226 0 362 -147t136 -397q0 -251 -136 -397t-362 -146q-224 0 -359.5 146t-135.5 397zM170 535q0 -219 104.5 -341t286.5 -122q184 0 288.5 122t104.5 341q0 218 -105 341t-288 123q-182 0 -286.5 -123t-104.5 -341zM356 1421q11 29 43 29 h2q33 0 62 -45l123 -180q15 -22 6 -41t-33 -19h-2q-17 0 -35 21l-151 174q-26 32 -15 61z" />
<glyph unicode="&#xf3;" d="M66 535q0 250 136 397t359 147q226 0 362 -147t136 -397q0 -251 -136 -397t-362 -146q-224 0 -359.5 146t-135.5 397zM170 535q0 -219 104.5 -341t286.5 -122q184 0 288.5 122t104.5 341q0 218 -105 341t-288 123q-182 0 -286.5 -123t-104.5 -341zM530.5 1184 q-8.5 19 6.5 41l122 180q29 45 62 45h2q32 0 43.5 -29t-14.5 -61l-152 -174q-18 -21 -35 -21h-2q-24 0 -32.5 19z" />
<glyph unicode="&#xf4;" d="M66 535q0 250 136 397t359 147q226 0 362 -147t136 -397q0 -251 -136 -397t-362 -146q-224 0 -359.5 146t-135.5 397zM170 535q0 -219 104.5 -341t286.5 -122q184 0 288.5 122t104.5 341q0 218 -105 341t-288 123q-182 0 -286.5 -123t-104.5 -341zM333.5 1184.5 q-9.5 19.5 10.5 44.5l152 180q12 14 18 19.5t18 11.5t27 6h4q35 0 64 -37l145 -180q19 -25 10.5 -44.5t-30.5 -19.5h-2q-18 0 -37 23l-156 164l-154 -164q-19 -23 -36 -23h-2q-22 0 -31.5 19.5z" />
<glyph unicode="&#xf5;" d="M66 535q0 250 136 397t359 147q226 0 362 -147t136 -397q0 -251 -136 -397t-362 -146q-224 0 -359.5 146t-135.5 397zM170 535q0 -219 104.5 -341t286.5 -122q184 0 288.5 122t104.5 341q0 218 -105 341t-288 123q-182 0 -286.5 -123t-104.5 -341zM305 1257q12 51 52 83 t94 32q49 0 120 -40t97 -40q53 0 75 56q6 13 9 19t11.5 12.5t20.5 6.5h2q22 0 29.5 -18.5t1.5 -44.5q-12 -51 -50.5 -84t-92.5 -33q-39 0 -81.5 20.5t-77.5 41t-58 20.5q-56 0 -78 -55q0 -1 -1 -3q-14 -30 -30 -35q-5 -1 -10 -1h-2q-22 0 -29.5 18.5t-1.5 44.5z" />
<glyph unicode="&#xf6;" d="M66 535q0 250 136 397t359 147q226 0 362 -147t136 -397q0 -251 -136 -397t-362 -146q-224 0 -359.5 146t-135.5 397zM170 535q0 -219 104.5 -341t286.5 -122q184 0 288.5 122t104.5 341q0 218 -105 341t-288 123q-182 0 -286.5 -123t-104.5 -341zM344 1298 q0 29 20.5 49.5t49.5 20.5t49 -20.5t20 -49.5q0 -28 -20 -47.5t-49 -19.5t-49.5 19.5t-20.5 47.5zM639 1298q0 29 20 49.5t48 20.5q29 0 49 -20.5t20 -49.5q0 -28 -20 -47.5t-49 -19.5q-28 0 -48 19.5t-20 47.5z" />
<glyph unicode="&#xf7;" horiz-adv-x="966" d="M66 707v4q0 19 11.5 31t33.5 12h747q21 0 32 -12.5t11 -30.5v-4q0 -20 -11 -32.5t-32 -12.5h-747q-22 0 -33.5 12.5t-11.5 32.5zM406 403q0 34 22.5 57t54.5 23q34 0 57 -23t23 -57q0 -33 -23 -55t-57 -22q-33 0 -55 22t-22 55zM406 1010q0 34 22.5 57t54.5 23 q34 0 57 -23t23 -57q0 -32 -23 -55t-57 -23q-32 0 -54.5 23t-22.5 55z" />
<glyph unicode="&#xf8;" d="M66 535q0 250 136 397t359 147q176 0 305 -96l84 104q23 29 41 29h2q26 0 36 -20.5t-9 -46.5l-96 -119q135 -148 135 -395q0 -251 -136 -397t-362 -146q-179 0 -307 98l-94 -119q-22 -28 -41 -28h-2q-26 0 -36 20.5t9 46.5l107 133q-131 143 -131 392zM170 535 q0 -196 86 -318l555 696q-103 86 -250 86q-182 0 -286.5 -123t-104.5 -341zM307 158q100 -86 254 -86q184 0 288.5 122t104.5 341q0 196 -90 319z" />
<glyph unicode="&#xf9;" horiz-adv-x="1120" d="M135 266v758q0 49 49 49h6q50 0 50 -49v-748q0 -115 52 -159.5t146 -44.5q196 0 430 170v782q0 49 50 49h4q49 0 49 -49v-981q0 -49 -45 -49h-2q-29 0 -42.5 22t-13.5 78v62q-222 -168 -444 -168q-289 0 -289 278zM352 1421q11 29 43 29h2q33 0 62 -45l123 -180 q15 -22 6 -41t-33 -19h-2q-17 0 -35 21l-151 174q-26 32 -15 61z" />
<glyph unicode="&#xfa;" horiz-adv-x="1120" d="M135 266v758q0 49 49 49h6q50 0 50 -49v-748q0 -115 52 -159.5t146 -44.5q196 0 430 170v782q0 49 50 49h4q49 0 49 -49v-981q0 -49 -45 -49h-2q-29 0 -42.5 22t-13.5 78v62q-222 -168 -444 -168q-289 0 -289 278zM526 1184q-9 19 6 41l123 180q29 45 62 45h2 q32 0 43.5 -29t-14.5 -61l-152 -174q-18 -21 -35 -21h-2q-24 0 -33 19z" />
<glyph unicode="&#xfb;" horiz-adv-x="1120" d="M135 266v758q0 49 49 49h6q50 0 50 -49v-748q0 -115 52 -159.5t146 -44.5q196 0 430 170v782q0 49 50 49h4q49 0 49 -49v-981q0 -49 -45 -49h-2q-29 0 -42.5 22t-13.5 78v62q-222 -168 -444 -168q-289 0 -289 278zM329 1184.5q-9 19.5 11 44.5l152 180q12 14 18 19.5 t18 11.5t27 6h4q35 0 64 -37l145 -180q19 -25 10.5 -44.5t-30.5 -19.5h-3q-17 0 -36 23l-156 164l-154 -164q-19 -23 -37 -23h-2q-22 0 -31 19.5z" />
<glyph unicode="&#xfc;" horiz-adv-x="1120" d="M135 266v758q0 49 49 49h6q50 0 50 -49v-748q0 -115 52 -159.5t146 -44.5q196 0 430 170v782q0 49 50 49h4q49 0 49 -49v-981q0 -49 -45 -49h-2q-29 0 -42.5 22t-13.5 78v62q-222 -168 -444 -168q-289 0 -289 278zM340 1298q0 29 20.5 49.5t49.5 20.5t49 -20.5t20 -49.5 q0 -28 -20 -47.5t-49 -19.5t-49.5 19.5t-20.5 47.5zM635 1298q0 29 19.5 49.5t47.5 20.5q29 0 49.5 -20.5t20.5 -49.5q0 -28 -20.5 -47.5t-49.5 -19.5q-28 0 -47.5 19.5t-19.5 47.5z" />
<glyph unicode="&#xfd;" horiz-adv-x="1024" d="M68 995q-13 29 2 50.5t43 21.5h2q31 0 49 -43l360 -827h2l346 831q16 39 48 39h2q28 0 40.5 -20.5t0.5 -49.5l-543 -1290q-16 -39 -47 -39h-2q-29 0 -41.5 19.5t0.5 50.5l145 336zM493.5 1184q-8.5 19 6.5 41l123 180q29 45 61 45h2q32 0 43.5 -29t-14.5 -61l-152 -174 q-18 -21 -35 -21h-2q-24 0 -32.5 19z" />
<glyph unicode="&#xfe;" horiz-adv-x="1128" d="M145 -289v1680q0 49 45 49h3q29 0 42 -19.5t13 -74.5v-469q173 202 405 202q64 0 121 -15.5t111 -53.5t92.5 -96.5t62 -151.5t23.5 -211q0 -122 -27 -219t-71 -158.5t-104.5 -102t-123.5 -57t-133 -16.5q-217 0 -356 125v-412q0 -49 -49 -49h-4q-50 0 -50 49zM248 221 q65 -71 145.5 -106t192.5 -35q57 0 107 12t100 44.5t85.5 82.5t57.5 132.5t22 189.5q0 105 -19.5 186.5t-50 131t-74 81t-86.5 43.5t-91 12q-207 0 -389 -219v-555z" />
<glyph unicode="&#xff;" horiz-adv-x="1024" d="M68 995q-13 29 2 50.5t43 21.5h2q31 0 49 -43l360 -827h2l346 831q16 39 48 39h2q28 0 40.5 -20.5t0.5 -49.5l-543 -1290q-16 -39 -47 -39h-2q-29 0 -41.5 19.5t0.5 50.5l145 336zM307 1298q0 29 20.5 49.5t49.5 20.5t49 -20.5t20 -49.5q0 -28 -20 -47.5t-49 -19.5 t-49.5 19.5t-20.5 47.5zM602 1298q0 29 20 49.5t48 20.5q29 0 49 -20.5t20 -49.5q0 -28 -20 -47.5t-49 -19.5q-28 0 -48 19.5t-20 47.5z" />
<glyph unicode="&#x152;" horiz-adv-x="1955" d="M84 715q0 374 180 546.5t543 172.5h1016q18 0 30.5 -11t12.5 -32v-5q0 -22 -12 -33.5t-31 -11.5h-688v-557h505q18 0 30.5 -11t12.5 -32v-4q0 -21 -12.5 -32t-30.5 -11h-505v-604h716q18 0 30.5 -11t12.5 -32v-4q0 -21 -12.5 -32t-30.5 -11h-1046q-363 0 -542 170 t-179 545zM197 717q0 -335 147 -481t463 -146h217v1251h-217q-316 0 -463 -145t-147 -479z" />
<glyph unicode="&#x153;" horiz-adv-x="1927" d="M66 535q0 250 136 397t359 147q162 0 277 -78.5t168 -222.5q54 142 164 221.5t257 79.5q205 0 322 -123.5t117 -375.5q0 -25 -13.5 -37.5t-35.5 -12.5h-758q0 -224 102.5 -339t302.5 -115q85 0 150 17t94 37t53.5 37t38.5 17q20 0 31.5 -10.5t11.5 -28.5v-2 q0 -28 -39 -55q-139 -96 -350 -96q-171 0 -285.5 75.5t-164.5 215.5q-54 -139 -168.5 -215t-274.5 -76q-224 0 -359.5 146t-135.5 397zM170 535q0 -219 104.5 -341t286.5 -122q184 0 288.5 122t104.5 341q0 218 -105 341t-288 123q-182 0 -286.5 -123t-104.5 -341zM1061 608 h702q-8 393 -336 393q-152 0 -250 -100.5t-116 -292.5z" />
<glyph unicode="&#x178;" horiz-adv-x="1122" d="M64.5 1415q13.5 25 44.5 25h2q31 0 51 -39l401 -699h4l404 703q21 35 47 35h2q29 0 43 -21.5t-2 -52.5l-443 -762v-557q0 -26 -15 -39.5t-38 -13.5h-4q-23 0 -38 13.5t-15 39.5v553l-440 758q-17 32 -3.5 57zM350 1583q0 28 20.5 49t49.5 21t49 -21t20 -49 q0 -29 -20 -49.5t-49 -20.5t-49.5 20.5t-20.5 49.5zM645 1583q0 28 20 49t48 21q29 0 49 -21t20 -49q0 -29 -20 -49.5t-49 -20.5q-28 0 -48 20.5t-20 49.5z" />
<glyph unicode="&#x2c6;" horiz-adv-x="841" d="M196 1184.5q-9 19.5 11 44.5l151 180q12 13 18.5 19t18.5 12t27 6h4q21 0 34.5 -8.5t28.5 -28.5l146 -180q18 -25 9.5 -44.5t-30.5 -19.5h-2q-18 0 -37 23l-155 164l-154 -164q-19 -23 -37 -23h-2q-22 0 -31 19.5z" />
<glyph unicode="&#x2dc;" horiz-adv-x="843" d="M162 1257q12 51 51.5 83t93.5 32q49 0 120 -40t97 -40q54 0 76 56q6 13 9 19t11.5 12.5t20.5 6.5h2q22 0 29.5 -18.5t1.5 -44.5q-12 -51 -51 -84t-93 -33q-39 0 -81.5 20.5t-77.5 41t-58 20.5q-55 0 -77 -55q-14 -31 -28 -37q-6 -2 -13 -2h-2q-22 0 -29.5 18.5t-1.5 44.5 z" />
<glyph unicode="&#x2000;" horiz-adv-x="927" />
<glyph unicode="&#x2001;" horiz-adv-x="1855" />
<glyph unicode="&#x2002;" horiz-adv-x="927" />
<glyph unicode="&#x2003;" horiz-adv-x="1855" />
<glyph unicode="&#x2004;" horiz-adv-x="618" />
<glyph unicode="&#x2005;" horiz-adv-x="463" />
<glyph unicode="&#x2006;" horiz-adv-x="309" />
<glyph unicode="&#x2007;" horiz-adv-x="309" />
<glyph unicode="&#x2008;" horiz-adv-x="231" />
<glyph unicode="&#x2009;" horiz-adv-x="371" />
<glyph unicode="&#x200a;" horiz-adv-x="103" />
<glyph unicode="&#x2010;" horiz-adv-x="462" d="M43 608v4q0 18 11 30.5t32 12.5h291q21 0 32 -12.5t11 -30.5v-4q0 -18 -11 -30.5t-32 -12.5h-291q-21 0 -32 12.5t-11 30.5z" />
<glyph unicode="&#x2011;" horiz-adv-x="462" d="M43 608v4q0 18 11 30.5t32 12.5h291q21 0 32 -12.5t11 -30.5v-4q0 -18 -11 -30.5t-32 -12.5h-291q-21 0 -32 12.5t-11 30.5z" />
<glyph unicode="&#x2012;" horiz-adv-x="462" d="M43 608v4q0 18 11 30.5t32 12.5h291q21 0 32 -12.5t11 -30.5v-4q0 -18 -11 -30.5t-32 -12.5h-291q-21 0 -32 12.5t-11 30.5z" />
<glyph unicode="&#x2013;" horiz-adv-x="804" d="M49 588v4q0 19 11.5 31t33.5 12h619q21 0 32 -12.5t11 -30.5v-4q0 -20 -11 -32.5t-32 -12.5h-619q-22 0 -33.5 12.5t-11.5 32.5z" />
<glyph unicode="&#x2014;" horiz-adv-x="1347" d="M49 588v4q0 19 11.5 31t33.5 12h1161q21 0 32 -12.5t11 -30.5v-4q0 -20 -11 -32.5t-32 -12.5h-1161q-22 0 -33.5 12.5t-11.5 32.5z" />
<glyph unicode="&#x2018;" horiz-adv-x="294" d="M61 1239q0 83 34.5 132.5t94.5 60.5q24 4 36 -3.5t12 -21.5v-2q0 -22 -31 -35q-51 -22 -51 -65q0 -25 32 -45q33 -21 33 -62q0 -30 -21.5 -50t-54.5 -20q-37 0 -60.5 27.5t-23.5 83.5z" />
<glyph unicode="&#x2019;" horiz-adv-x="294" d="M57 1159v2q0 22 31 35q51 22 51 66q0 12 -5.5 21t-11 13t-16.5 11q-19 12 -25.5 25t-6.5 36q0 30 21.5 50t54.5 20q37 0 60 -27t23 -84q0 -83 -34.5 -132t-94.5 -60q-47 -8 -47 24z" />
<glyph unicode="&#x201a;" horiz-adv-x="294" d="M57 -111q0 22 31 35q51 22 51 66q0 12 -5.5 21t-11 13t-16.5 11q-19 12 -25.5 25t-6.5 36q0 30 21.5 50t54.5 20q37 0 60 -27t23 -84q0 -83 -34.5 -132t-94.5 -60q-47 -8 -47 24v2z" />
<glyph unicode="&#x201c;" horiz-adv-x="534" d="M61 1239q0 83 34.5 132.5t94.5 60.5q24 4 36 -3.5t12 -21.5v-2q0 -22 -31 -35q-51 -22 -51 -65q0 -25 32 -45q33 -21 33 -62q0 -30 -21.5 -50t-54.5 -20q-37 0 -60.5 27.5t-23.5 83.5zM301 1239q0 83 34.5 132.5t94.5 60.5q47 8 47 -25v-2q0 -22 -31 -35q-51 -22 -51 -65 q0 -12 5.5 -21t11 -13t16.5 -11q33 -21 33 -62q0 -30 -21.5 -50t-54.5 -20q-37 0 -60.5 27.5t-23.5 83.5z" />
<glyph unicode="&#x201d;" horiz-adv-x="534" d="M57 1159v2q0 22 31 35q51 22 51 66q0 12 -5.5 21t-11 13t-16.5 11q-19 12 -25.5 25t-6.5 36q0 30 21.5 50t54.5 20q37 0 60 -27t23 -84q0 -83 -34.5 -132t-94.5 -60q-47 -8 -47 24zM297 1159v2q0 22 31 35q51 22 51 66q0 12 -5.5 21t-11 13t-16.5 11q-19 12 -26 25t-7 36 q0 30 21.5 50t54.5 20q37 0 60.5 -27.5t23.5 -83.5q0 -83 -34.5 -132t-94.5 -60q-47 -8 -47 24z" />
<glyph unicode="&#x201e;" horiz-adv-x="534" d="M57 -111q0 22 31 35q51 22 51 66q0 12 -5.5 21t-11 13t-16.5 11q-19 12 -25.5 25t-6.5 36q0 30 21.5 50t54.5 20q37 0 60 -27t23 -84q0 -83 -34.5 -132t-94.5 -60q-47 -8 -47 24v2zM297 -111q0 22 31 35q51 22 51 66q0 12 -5.5 21t-11 13t-16.5 11q-19 12 -26 25t-7 36 q0 30 21.5 50t54.5 20q37 0 60.5 -27.5t23.5 -83.5q0 -83 -34.5 -132t-94.5 -60q-47 -8 -47 24v2z" />
<glyph unicode="&#x2022;" horiz-adv-x="581" d="M51 616q0 106 69 172t171 66q103 0 171 -65.5t68 -172.5q0 -110 -67.5 -173.5t-171.5 -63.5q-103 0 -171.5 64t-68.5 173z" />
<glyph unicode="&#x2026;" horiz-adv-x="952" d="M68 70q0 33 22 56.5t55 23.5q32 0 56 -24t24 -56q0 -33 -23.5 -55.5t-56.5 -22.5q-34 0 -55.5 22t-21.5 56zM397 70q0 32 23 56t55 24q33 0 56.5 -23.5t23.5 -56.5q0 -34 -23 -56t-57 -22q-33 0 -55.5 22.5t-22.5 55.5zM729 70q0 33 22.5 56.5t55.5 23.5q32 0 56 -24 t24 -56q0 -33 -23.5 -55.5t-56.5 -22.5q-34 0 -56 22t-22 56z" />
<glyph unicode="&#x202f;" horiz-adv-x="371" />
<glyph unicode="&#x2039;" horiz-adv-x="530" d="M53 530v5q0 20 23 49l293 360q23 33 47 33h2q29 0 41 -25t-8 -53l-287 -364v-5l287 -364q20 -28 8 -53t-41 -25h-2q-24 0 -47 33l-293 360q-23 29 -23 49z" />
<glyph unicode="&#x203a;" horiz-adv-x="530" d="M72 113q-12 25 8 53l287 364v5l-287 364q-20 28 -8 53t41 25h2q24 0 47 -33l293 -360q22 -28 22 -49v-5q0 -22 -22 -49l-293 -360q-23 -33 -47 -33h-2q-29 0 -41 25z" />
<glyph unicode="&#x205f;" horiz-adv-x="463" />
<glyph unicode="&#x20ac;" horiz-adv-x="1210" d="M33 608v2q0 16 10.5 27.5t28.5 11.5h104q-2 23 -2 72t2 74h-104q-18 0 -28.5 11.5t-10.5 27.5v4q0 16 10.5 27.5t28.5 11.5h112q19 135 70 242.5t126 178t170 107.5t202 37q219 0 344 -94q39 -28 39 -60v-2q0 -19 -11.5 -31t-27.5 -12q-22 0 -49 17.5t-54 38t-89 38 t-146 17.5q-185 0 -308 -123t-155 -354h498q18 0 28 -11.5t10 -27.5v-4q0 -16 -10 -27.5t-28 -11.5h-506q-2 -23 -2 -70q0 -51 2 -76h467q18 0 28.5 -11.5t10.5 -27.5v-2q0 -16 -10.5 -27.5t-28.5 -11.5h-461q29 -241 143.5 -365t304.5 -124q77 0 138.5 14t97 34t61.5 40.5 t46 34.5t36 14q19 0 31 -12t12 -29v-2q0 -27 -28 -51q-149 -131 -396 -131q-230 0 -377.5 148.5t-179.5 428.5h-110q-18 0 -28.5 11.5t-10.5 27.5z" />
<glyph unicode="&#x2122;" horiz-adv-x="1263" d="M33 1395v4q0 15 9.5 25t27.5 10h387q18 0 27.5 -10t9.5 -25v-4q0 -15 -9.5 -25t-27.5 -10h-148v-451q0 -22 -12.5 -33.5t-32.5 -11.5h-4q-20 0 -32.5 11.5t-12.5 33.5v451h-145q-18 0 -27.5 10t-9.5 25zM584 903v477q0 26 15 40t38 14h35q50 0 67 -48l131 -374h2l134 374 q17 48 67 48h37q23 0 38 -14t15 -40v-473q0 -21 -12.5 -32t-30.5 -11h-4q-18 0 -30.5 11t-12.5 32v443h-2l-162 -455q-10 -31 -39 -31h-4q-31 0 -41 31l-159 455h-2v-449q0 -37 -37 -37h-4q-39 0 -39 39z" />
<glyph unicode="&#x25fc;" horiz-adv-x="1075" d="M0 0v1075h1075v-1075h-1075z" />
<glyph unicode="&#xfb01;" horiz-adv-x="935" d="M16 1026v4q0 37 41 37h107v107q0 134 68.5 200t181.5 66q56 0 92 -8q43 -10 43 -41v-2q0 -40 -47 -37q-8 0 -31.5 2t-32.5 2q-88 0 -130 -41.5t-42 -147.5v-100h223q41 0 41 -37v-4q0 -37 -41 -37h-223v-946q0 -49 -49 -49h-4q-49 0 -49 49v946h-107q-41 0 -41 37z M666 1300q0 28 20 49t49 21t49.5 -21t20.5 -49q0 -29 -20.5 -49t-49.5 -20t-49 20t-20 49zM682 43v981q0 49 45 49h2q29 0 42 -19.5t13 -74.5v-936q0 -49 -49 -49h-4q-49 0 -49 49z" />
<glyph unicode="&#xfb02;" horiz-adv-x="929" d="M16 1026v4q0 37 41 37h107v107q0 134 68.5 200t181.5 66q56 0 92 -8q43 -10 43 -41v-2q0 -40 -47 -37q-8 0 -31.5 2t-32.5 2q-88 0 -130 -41.5t-42 -147.5v-100h223q41 0 41 -37v-4q0 -37 -41 -37h-223v-946q0 -49 -49 -49h-4q-49 0 -49 49v946h-107q-41 0 -41 37z M680 43v1348q0 49 47 49h2q29 0 42 -19.5t13 -74.5v-1303q0 -49 -49 -49h-4q-22 0 -36.5 12t-14.5 37z" />
</font>
</defs>
</svg>
